<svg width="16" height="18" viewBox="0 0 16 18" fill="none" xmlns="http://www.w3.org/2000/svg">
<g clip-path="url(#clip0_1112_4125)">
<path d="M14.8596 6.1362C14.7552 6.2172 12.912 7.2558 12.912 9.5652C12.912 12.2364 15.2574 13.1814 15.3276 13.2048C15.3168 13.2624 14.955 14.499 14.091 15.759C13.3206 16.8678 12.516 17.9748 11.292 17.9748C10.068 17.9748 9.75303 17.2638 8.34003 17.2638C6.96303 17.2638 6.47343 17.9982 5.35383 17.9982C4.23423 17.9982 3.45303 16.9722 2.55483 15.7122C1.51443 14.2326 0.673828 11.934 0.673828 9.7524C0.673828 6.2532 2.94903 4.3974 5.18823 4.3974C6.37803 4.3974 7.36983 5.1786 8.11683 5.1786C8.82783 5.1786 9.93663 4.3506 11.2902 4.3506C11.8032 4.3506 13.6464 4.3974 14.8596 6.1362ZM10.6476 2.8692C11.2074 2.205 11.6034 1.2834 11.6034 0.3618C11.6034 0.234 11.5926 0.1044 11.5692 0C10.6584 0.0342 9.57483 0.6066 8.92143 1.3644C8.40843 1.9476 7.92963 2.8692 7.92963 3.8034C7.92963 3.9438 7.95303 4.0842 7.96383 4.1292C8.02143 4.14 8.11503 4.1526 8.20863 4.1526C9.02583 4.1526 10.0536 3.6054 10.6476 2.8692Z" fill="black"/>
</g>
<defs>
<clipPath id="clip0_1112_4125">
<rect width="14.652" height="18" fill="white" transform="translate(0.673828)"/>
</clipPath>
</defs>
</svg>
