<svg width="19" height="18" viewBox="0 0 19 18" fill="none" xmlns="http://www.w3.org/2000/svg">
<path d="M9.67773 7.36365V10.8491H14.4935C14.282 11.97 13.6474 12.9192 12.6957 13.5573L15.5998 15.8237C17.2918 14.2529 18.268 11.9456 18.268 9.20466C18.268 8.56648 18.2111 7.95278 18.1053 7.36375L9.67773 7.36365Z" fill="#4285F4"/>
<path d="M4.66288 10.7131L4.0079 11.2174L1.68945 13.0337C3.16184 15.971 6.17962 18.0001 9.67754 18.0001C12.0935 18.0001 14.119 17.1983 15.5996 15.8238L12.6955 13.5574C11.8983 14.0974 10.8814 14.4247 9.67754 14.4247C7.35101 14.4247 5.37432 12.8456 4.66654 10.7183L4.66288 10.7131Z" fill="#34A853"/>
<path d="M1.6903 4.96637C1.08023 6.17724 0.730469 7.54363 0.730469 8.99997C0.730469 10.4563 1.08023 11.8227 1.6903 13.0336C1.6903 13.0417 4.66768 10.7099 4.66768 10.7099C4.48871 10.1699 4.38293 9.59723 4.38293 8.99988C4.38293 8.40253 4.48871 7.82983 4.66768 7.28983L1.6903 4.96637Z" fill="#FBBC05"/>
<path d="M9.67772 3.58365C10.9956 3.58365 12.167 4.04183 13.1025 4.92548L15.6649 2.34823C14.1111 0.891879 12.0938 0 9.67772 0C6.1798 0 3.16184 2.02092 1.68945 4.9664L4.66674 7.29005C5.37442 5.16274 7.35119 3.58365 9.67772 3.58365Z" fill="#EA4335"/>
</svg>
