<svg width="107" height="22" viewBox="0 0 107 22" fill="none" xmlns="http://www.w3.org/2000/svg">
<path fill-rule="evenodd" clip-rule="evenodd" d="M10.2323 5.37219C10.6561 5.37219 10.9997 5.63652 10.9997 5.96259V18.5958C10.9997 18.9218 10.6561 19.1862 10.2323 19.1862C9.80844 19.1862 9.46484 18.9218 9.46484 18.5958V5.96259C9.46484 5.63652 9.80844 5.37219 10.2323 5.37219Z" fill="black"/>
<path fill-rule="evenodd" clip-rule="evenodd" d="M10.8468 0.127373L10.4878 0.613006L10.1286 0.127521C10.3402 -0.0424519 10.6351 -0.0425125 10.8468 0.127373ZM10.4878 8.59668C10.1286 9.08217 10.1285 9.08205 10.1283 9.08193L10.1271 9.08096L10.1248 9.07909L10.1178 9.07338L10.0946 9.05413C10.0751 9.03788 10.0479 9.01479 10.0141 8.98521C9.94645 8.92609 9.85196 8.84077 9.73955 8.73192C9.51546 8.51492 9.21641 8.20078 8.91614 7.8109C8.32811 7.04738 7.67383 5.91364 7.67383 4.60484C7.67383 3.29604 8.32811 2.16231 8.91614 1.39878C9.21641 1.00891 9.51546 0.694764 9.73955 0.477764C9.85196 0.368917 9.94645 0.283595 10.0141 0.224477C10.0479 0.194896 10.0751 0.17181 10.0946 0.155553L10.1178 0.13631L10.1248 0.130594L10.1271 0.128725L10.1286 0.127521C10.1288 0.127398 10.1286 0.127521 10.4878 0.613006C10.8468 0.127373 10.8466 0.12725 10.8468 0.127373L10.8483 0.128578L10.8506 0.130447L10.8576 0.136161L10.8808 0.155395C10.9003 0.171644 10.9275 0.194717 10.9613 0.224282C11.029 0.283368 11.1235 0.368645 11.2359 0.477442C11.46 0.694341 11.7591 1.00837 12.0594 1.39818C12.6475 2.16163 13.3017 3.29536 13.3017 4.60484C13.3017 5.91364 12.6475 7.04738 12.0594 7.8109C11.7592 8.20078 11.4601 8.51492 11.236 8.73192C11.1236 8.84077 11.0291 8.92609 10.9615 8.98521C10.9276 9.01479 10.9004 9.03788 10.881 9.05413L10.8578 9.07338L10.8508 9.07909L10.8485 9.08096L10.8476 9.08165C10.8475 9.08177 10.847 9.08217 10.4878 8.59668ZM10.4878 8.59668L10.1283 9.08193C10.34 9.25195 10.636 9.25167 10.8476 9.08165L10.4878 8.59668ZM10.4878 7.78227C10.6738 7.5984 10.9083 7.34674 11.1418 7.04355C11.6666 6.36213 12.1252 5.49995 12.1252 4.60484C12.1252 3.70897 11.6666 2.84677 11.1419 2.16565C10.9084 1.86257 10.6739 1.61105 10.4879 1.4273C10.3019 1.61118 10.0673 1.86288 9.83375 2.16614C9.30895 2.84756 8.85039 3.70974 8.85039 4.60484C8.85039 5.49995 9.30895 6.36213 9.83375 7.04355C10.0673 7.34674 10.3018 7.5984 10.4878 7.78227ZM10.1281 1.09809C10.1279 1.09795 10.128 1.09801 10.1281 1.09809V1.09809Z" fill="black"/>
<path fill-rule="evenodd" clip-rule="evenodd" d="M1.6406 9.26017C1.02619 9.33477 1.02621 9.33496 1.02624 9.33515L1.02644 9.3367L1.02683 9.33968L1.02806 9.34874L1.03238 9.37892C1.03613 9.40426 1.04168 9.43987 1.04932 9.48462C1.0646 9.57405 1.08832 9.70035 1.12294 9.85427C1.19196 10.1611 1.30545 10.5829 1.48426 11.0436C1.83443 11.9458 2.47161 13.0918 3.61161 13.7459C4.75126 14.3998 6.08728 14.3876 7.06576 14.249C7.56537 14.1782 7.99838 14.0706 8.30683 13.9808C8.46155 13.9357 8.58623 13.8948 8.67378 13.8645C8.71758 13.8493 8.75219 13.8368 8.77671 13.8277L8.80585 13.8168L8.81457 13.8135L8.81743 13.8124L8.81848 13.8119C8.81867 13.8119 8.81928 13.8116 8.58837 13.2513L8.81848 13.8119C9.07947 13.7096 9.23775 13.4483 9.2027 13.1761L8.58837 13.2513C9.2027 13.1761 9.20273 13.1763 9.2027 13.1761L9.20245 13.1742L9.20206 13.1712L9.20082 13.1622L9.19647 13.132C9.1927 13.1067 9.18712 13.0711 9.17943 13.0264C9.16407 12.937 9.14024 12.8108 9.1055 12.657C9.03625 12.3503 8.92248 11.9287 8.74351 11.4682C8.39303 10.5664 7.756 9.42078 6.61803 8.76597C5.47838 8.11205 4.14169 8.12388 3.16321 8.26254C2.6636 8.33334 2.23059 8.44092 1.92214 8.53072C1.76742 8.57577 1.64274 8.61672 1.5552 8.64702C1.51139 8.66218 1.47679 8.6747 1.45226 8.68377L1.42312 8.69471L1.4144 8.69805L1.41154 8.69916L1.41049 8.69957C1.4103 8.69964 1.40969 8.69988 1.6406 9.26017ZM2.34901 9.6672C2.40955 9.92386 2.50322 10.2575 2.64237 10.6161C2.95485 11.4212 3.46015 12.2578 4.23952 12.705C5.01925 13.1524 6.01462 13.1775 6.88771 13.0538C7.27612 12.9988 7.62022 12.9171 7.87946 12.8444C7.81871 12.5879 7.72483 12.2545 7.58559 11.8962C7.27273 11.0912 6.76738 10.2543 5.98913 9.80633C5.20946 9.35911 4.21423 9.33399 3.34127 9.45769C2.9526 9.51277 2.60831 9.59451 2.34901 9.6672ZM1.6406 9.26017L1.41049 8.69957C1.14973 8.80179 0.991518 9.06316 1.02624 9.33515L1.6406 9.26017ZM1.87066 9.82079C1.87045 9.82087 1.87054 9.82083 1.87066 9.82079V9.82079Z" fill="black"/>
<path fill-rule="evenodd" clip-rule="evenodd" d="M5.72525 11.806C5.90603 11.5041 6.27479 11.4207 6.54888 11.6199L10.7318 14.6588C11.0059 14.8579 11.0815 15.2641 10.9008 15.5661C10.72 15.868 10.3512 15.9513 10.0771 15.7522L5.89421 12.7132C5.62011 12.5141 5.54446 12.1079 5.72525 11.806Z" fill="black"/>
<path fill-rule="evenodd" clip-rule="evenodd" d="M19.8209 8.69974C19.8211 8.69981 19.8213 8.69988 19.5904 9.26017C20.2048 9.33477 20.2047 9.33496 20.2047 9.33515L20.2045 9.3367L20.2041 9.33968L20.2029 9.34874L20.1986 9.37892C20.1948 9.40426 20.1893 9.43987 20.1816 9.48462C20.1664 9.57405 20.1426 9.70035 20.108 9.85427C20.039 10.1611 19.9255 10.5829 19.7467 11.0436C19.3965 11.9458 18.7593 13.0918 17.6193 13.7459C16.4797 14.3998 15.1437 14.3876 14.1652 14.249C13.6656 14.1782 13.2325 14.0706 12.9241 13.9808C12.7694 13.9357 12.6447 13.8948 12.5572 13.8645C12.5133 13.8493 12.4787 13.8368 12.4542 13.8277L12.4251 13.8168L12.4164 13.8135L12.4135 13.8124L12.4124 13.8119C12.4123 13.8119 12.4116 13.8116 12.6426 13.2513C12.0282 13.1761 12.0282 13.1759 12.0283 13.1757L12.0285 13.1742L12.0289 13.1712L12.0301 13.1622L12.0345 13.132C12.0382 13.1067 12.0438 13.0711 12.0515 13.0264C12.0669 12.937 12.0907 12.8108 12.1254 12.657C12.1947 12.3503 12.3084 11.9287 12.4874 11.4682C12.8379 10.5664 13.4749 9.42078 14.6129 8.76597C15.7526 8.11205 17.0893 8.12388 18.0677 8.26254C18.5674 8.33334 19.0004 8.44092 19.3088 8.53072C19.4635 8.57577 19.5882 8.61672 19.6758 8.64702C19.7196 8.66218 19.7542 8.6747 19.7787 8.68377L19.8078 8.69471L19.8166 8.69805L19.8194 8.69916L19.8209 8.69974ZM12.6426 13.2513L12.0283 13.1757C11.9932 13.4479 12.1515 13.7096 12.4124 13.8119L12.6426 13.2513ZM13.3515 12.8444C13.6107 12.9171 13.9548 12.9988 14.3432 13.0538C15.2163 13.1775 16.2117 13.1524 16.9914 12.705C17.7708 12.2578 18.2761 11.4212 18.5886 10.6161C18.7277 10.2575 18.8214 9.92386 18.8819 9.6672C18.6226 9.59451 18.2784 9.51277 17.8897 9.45769C17.0167 9.33399 16.0215 9.35911 15.2418 9.80633C14.4636 10.2543 13.9582 11.0912 13.6453 11.8962C13.5061 12.2545 13.4122 12.5879 13.3515 12.8444ZM19.5904 9.26017L20.2047 9.33515C20.2394 9.06316 20.0817 8.80196 19.8209 8.69974L19.5904 9.26017Z" fill="black"/>
<path fill-rule="evenodd" clip-rule="evenodd" d="M15.7432 11.806C15.9584 12.1079 15.8683 12.5141 15.542 12.7132L10.5624 15.7522C10.2361 15.9513 9.79708 15.868 9.58186 15.5661C9.36664 15.2641 9.4567 14.8579 9.783 14.6588L14.7627 11.6199C15.089 11.4207 15.528 11.5041 15.7432 11.806Z" fill="black"/>
<path fill-rule="evenodd" clip-rule="evenodd" d="M20.0472 21.8888C17.1751 20.2037 13.8633 19.3129 10.4855 19.3172C7.10762 19.3214 3.79826 20.2204 0.930912 21.9127C0.64543 22.0812 0.269886 21.9985 0.0921123 21.7279C-0.0856617 21.4573 0.00165319 21.1014 0.287136 20.9329C3.3472 19.1268 6.87898 18.1674 10.4839 18.1629C14.0887 18.1583 17.6232 19.1089 20.6882 20.9074C20.9742 21.0751 21.0625 21.4309 20.8855 21.7019C20.7085 21.9729 20.3332 22.0566 20.0472 21.8888Z" fill="black"/>
<path d="M28.6504 18.4789V4.78919H34.6359C35.5079 4.78919 36.2809 4.98476 36.9547 5.37589C37.6418 5.76702 38.1835 6.30157 38.5799 6.97954C38.9895 7.6575 39.1943 8.42022 39.1943 9.26767C39.1943 10.1542 38.9895 10.9495 38.5799 11.6536C38.1835 12.3446 37.6418 12.8922 36.9547 13.2963C36.2809 13.7005 35.5079 13.9026 34.6359 13.9026H32.0197V18.4789H28.6504ZM31.9602 10.9887H34.1602C34.4509 10.9887 34.7151 10.917 34.953 10.7735C35.1908 10.6301 35.3824 10.4346 35.5277 10.1868C35.6731 9.93912 35.7457 9.65229 35.7457 9.32634C35.7457 8.98736 35.6731 8.70053 35.5277 8.46585C35.3824 8.23117 35.1908 8.04864 34.953 7.91826C34.7151 7.78788 34.4509 7.72269 34.1602 7.72269H31.9602V10.9887Z" fill="black"/>
<path d="M41.4559 18.4789V4.00692H44.627V18.4789H41.4559Z" fill="black"/>
<path d="M51.1465 18.6549C50.2612 18.6549 49.4685 18.4267 48.7682 17.9704C48.0811 17.501 47.5328 16.8622 47.1232 16.0538C46.7136 15.2325 46.5088 14.3068 46.5088 13.2768C46.5088 12.2207 46.7136 11.2885 47.1232 10.4802C47.5328 9.67184 48.0943 9.03951 48.8078 8.58319C49.5213 8.11383 50.3339 7.87915 51.2456 7.87915C51.7477 7.87915 52.2035 7.95085 52.6131 8.09427C53.036 8.23769 53.4059 8.43977 53.723 8.70053C54.0401 8.94825 54.311 9.2416 54.5356 9.58058C54.7602 9.90652 54.9254 10.2585 55.0311 10.6366L54.3771 10.5584V8.09427H57.5284V18.4789H54.3176V15.9756L55.0311 15.9561C54.9254 16.3211 54.7536 16.6666 54.5158 16.9926C54.278 17.3185 53.9873 17.6053 53.6437 17.8531C53.3002 18.1008 52.917 18.2963 52.4942 18.4398C52.0714 18.5832 51.6222 18.6549 51.1465 18.6549ZM52.0186 16.0147C52.5074 16.0147 52.9303 15.9039 53.287 15.6823C53.6437 15.4606 53.9212 15.1477 54.1194 14.7435C54.3176 14.3263 54.4167 13.8374 54.4167 13.2768C54.4167 12.7162 54.3176 12.2338 54.1194 11.8296C53.9212 11.4124 53.6437 11.093 53.287 10.8713C52.9303 10.6366 52.5074 10.5193 52.0186 10.5193C51.5429 10.5193 51.1267 10.6366 50.7699 10.8713C50.4264 11.093 50.1555 11.4124 49.9573 11.8296C49.7591 12.2338 49.66 12.7162 49.66 13.2768C49.66 13.8374 49.7591 14.3263 49.9573 14.7435C50.1555 15.1477 50.4264 15.4606 50.7699 15.6823C51.1267 15.9039 51.5429 16.0147 52.0186 16.0147Z" fill="black"/>
<path d="M60.3265 18.4789V8.09427H63.339L63.4381 10.2064L62.8039 10.4411C62.9492 9.97171 63.2069 9.54798 63.5768 9.16989C63.96 8.77875 64.4159 8.46585 64.9444 8.23117C65.4729 7.99649 66.0278 7.87915 66.6092 7.87915C67.402 7.87915 68.0692 8.04212 68.611 8.36806C69.1527 8.68097 69.5623 9.15685 69.8398 9.7957C70.1172 10.4215 70.256 11.1907 70.256 12.1034V18.4789H67.0651V12.3576C67.0651 11.9404 67.0056 11.5949 66.8867 11.3211C66.7678 11.0473 66.5828 10.8452 66.3317 10.7149C66.0939 10.5715 65.7966 10.5063 65.4399 10.5193C65.1624 10.5193 64.9047 10.5649 64.6669 10.6562C64.4291 10.7344 64.2243 10.8583 64.0525 11.0278C63.8807 11.1842 63.742 11.3668 63.6363 11.5754C63.5438 11.784 63.4976 12.0121 63.4976 12.2598V18.4789H61.9318C61.5619 18.4789 61.2448 18.4789 60.9805 18.4789C60.7162 18.4789 60.4982 18.4789 60.3265 18.4789Z" fill="black"/>
<path d="M73.7792 18.4789V5.47367H76.9503V18.4789H73.7792ZM71.9162 10.8322V8.09427H78.9917V10.8322H71.9162Z" fill="black"/>
<path d="M80.9823 18.4789V8.09427H84.1534V18.4789H80.9823ZM82.5679 6.04082C81.9733 6.04082 81.5042 5.90392 81.1607 5.63013C80.8304 5.3433 80.6652 4.93913 80.6652 4.41761C80.6652 3.94825 80.837 3.56364 81.1805 3.26377C81.524 2.9639 81.9865 2.81396 82.5679 2.81396C83.1624 2.81396 83.6249 2.95738 83.9552 3.24421C84.2855 3.51801 84.4507 3.90914 84.4507 4.41761C84.4507 4.90001 84.2789 5.29115 83.9354 5.59101C83.6051 5.89088 83.1492 6.04082 82.5679 6.04082Z" fill="black"/>
<path d="M92.1473 18.6744C90.9846 18.6744 89.9738 18.4463 89.1149 17.99C88.2561 17.5206 87.5888 16.8883 87.1132 16.093C86.6375 15.2846 86.3997 14.3654 86.3997 13.3355C86.3997 12.5402 86.5318 11.81 86.796 11.1451C87.0603 10.4802 87.4303 9.90652 87.9059 9.42412C88.3816 8.92869 88.9431 8.55059 89.5906 8.28984C90.2512 8.01604 90.9713 7.87915 91.7509 7.87915C92.4908 7.87915 93.1647 8.00952 93.7725 8.27028C94.3935 8.53104 94.9286 8.89609 95.3779 9.36545C95.8271 9.83482 96.1706 10.3889 96.4085 11.0278C96.6463 11.6666 96.752 12.3641 96.7256 13.1203L96.7057 13.9613H88.3221L87.8663 12.2012H94.1292L93.7923 12.5728V12.1816C93.7659 11.8557 93.6602 11.5688 93.4752 11.3211C93.3034 11.0604 93.0722 10.8583 92.7815 10.7149C92.4908 10.5715 92.1605 10.4997 91.7905 10.4997C91.2752 10.4997 90.8326 10.604 90.4626 10.8126C90.1059 11.0082 89.835 11.3016 89.65 11.6927C89.4651 12.0708 89.3726 12.5402 89.3726 13.1008C89.3726 13.6744 89.4915 14.1764 89.7293 14.6066C89.9804 15.0239 90.3371 15.3498 90.7996 15.5845C91.2752 15.8192 91.8368 15.9365 92.4842 15.9365C92.9335 15.9365 93.3298 15.8713 93.6734 15.7409C94.0301 15.6106 94.4133 15.3889 94.8229 15.076L96.3094 17.149C95.8998 17.501 95.4637 17.7879 95.0013 18.0095C94.5388 18.2312 94.0632 18.3941 93.5743 18.4984C93.0986 18.6158 92.623 18.6744 92.1473 18.6744Z" fill="black"/>
<path d="M102.294 18.6744C101.263 18.6744 100.351 18.5115 99.5585 18.1855C98.7789 17.8596 98.1579 17.4228 97.6955 16.8752L99.618 15.2325C100.028 15.6366 100.49 15.9365 101.005 16.1321C101.521 16.3146 102.01 16.4059 102.472 16.4059C102.657 16.4059 102.822 16.3863 102.967 16.3472C103.113 16.3081 103.232 16.2559 103.324 16.1907C103.43 16.1125 103.509 16.0278 103.562 15.9365C103.615 15.8322 103.641 15.7149 103.641 15.5845C103.641 15.3237 103.522 15.1216 103.285 14.9782C103.166 14.913 102.967 14.8348 102.69 14.7435C102.413 14.6523 102.056 14.548 101.62 14.4306C100.999 14.2742 100.457 14.0917 99.9945 13.883C99.5453 13.6614 99.1753 13.4072 98.8847 13.1203C98.6204 12.8465 98.4156 12.5467 98.2702 12.2207C98.1249 11.8817 98.0522 11.5037 98.0522 11.0864C98.0522 10.604 98.1645 10.1673 98.3892 9.77614C98.627 9.38501 98.9375 9.04603 99.3207 8.7592C99.7171 8.47237 100.166 8.25724 100.668 8.11383C101.184 7.95737 101.712 7.87915 102.254 7.87915C102.835 7.87915 103.39 7.94434 103.919 8.07471C104.447 8.20509 104.936 8.38762 105.385 8.6223C105.848 8.85698 106.257 9.13729 106.614 9.46324L104.949 11.3016C104.712 11.0799 104.441 10.8844 104.137 10.7149C103.846 10.5323 103.542 10.3889 103.225 10.2846C102.908 10.1803 102.617 10.1282 102.353 10.1282C102.155 10.1282 101.976 10.1477 101.818 10.1868C101.673 10.2129 101.547 10.2651 101.441 10.3433C101.336 10.4085 101.256 10.4932 101.204 10.5975C101.151 10.6888 101.124 10.7996 101.124 10.93C101.124 11.0604 101.157 11.1842 101.223 11.3016C101.303 11.4189 101.408 11.5167 101.54 11.5949C101.673 11.6731 101.884 11.7644 102.175 11.8687C102.465 11.96 102.862 12.0773 103.364 12.2207C103.985 12.3902 104.52 12.5793 104.969 12.7879C105.418 12.9965 105.775 13.2442 106.039 13.531C106.251 13.7527 106.409 14.0134 106.515 14.3133C106.621 14.6001 106.674 14.913 106.674 15.252C106.674 15.9169 106.482 16.5102 106.099 17.0317C105.729 17.5401 105.214 17.9443 104.553 18.2442C103.892 18.531 103.139 18.6744 102.294 18.6744Z" fill="black"/>
</svg>
