<svg width="174" height="56" viewBox="0 0 174 56" fill="none" xmlns="http://www.w3.org/2000/svg">
<path fill-rule="evenodd" clip-rule="evenodd" d="M28.2223 7.32556C28.8003 7.32556 29.2688 7.68601 29.2688 8.13065V25.3577C29.2688 25.8023 28.8003 26.1628 28.2223 26.1628C27.6443 26.1628 27.1758 25.8023 27.1758 25.3577V8.13065C27.1758 7.68601 27.6443 7.32556 28.2223 7.32556Z" fill="white"/>
<path fill-rule="evenodd" clip-rule="evenodd" d="M29.0592 0.17369L28.5696 0.835917L28.0798 0.173892C28.3684 -0.0578889 28.7706 -0.0579716 29.0592 0.17369ZM28.5696 11.7227C28.0798 12.3848 28.0796 12.3846 28.0794 12.3844L28.0778 12.3831L28.0747 12.3806L28.0651 12.3728L28.0334 12.3465C28.0069 12.3244 27.9698 12.2929 27.9237 12.2526C27.8314 12.1719 27.7026 12.0556 27.5493 11.9072C27.2437 11.6113 26.8359 11.1829 26.4265 10.6512C25.6246 9.61006 24.7324 8.06406 24.7324 6.27933C24.7324 4.4946 25.6246 2.9486 26.4265 1.90743C26.8359 1.37578 27.2437 0.947405 27.5493 0.651497C27.7026 0.503069 27.8314 0.38672 27.9237 0.306105C27.9698 0.265767 28.0069 0.234286 28.0334 0.212118L28.0651 0.185878L28.0747 0.178083L28.0778 0.175534L28.0798 0.173892C28.0801 0.173724 28.0798 0.173892 28.5696 0.835917C29.0592 0.17369 29.059 0.173523 29.0592 0.17369L29.0612 0.175334L29.0644 0.177882L29.0739 0.185674L29.1056 0.211903C29.1321 0.234059 29.1692 0.265523 29.2154 0.305839C29.3076 0.386411 29.4365 0.502697 29.5898 0.651057C29.8954 0.946828 30.3032 1.37504 30.7127 1.9066C31.5147 2.94768 32.4068 4.49367 32.4068 6.27933C32.4068 8.06406 31.5146 9.61006 30.7128 10.6512C30.3033 11.1829 29.8955 11.6113 29.5899 11.9072C29.4367 12.0556 29.3078 12.1719 29.2156 12.2526C29.1694 12.2929 29.1323 12.3244 29.1058 12.3465L29.0742 12.3728L29.0646 12.3806L29.0615 12.3831L29.0603 12.3841C29.0601 12.3842 29.0594 12.3848 28.5696 11.7227ZM28.5696 11.7227L28.0794 12.3844C28.3681 12.6163 28.7717 12.6159 29.0603 12.3841L28.5696 11.7227ZM28.5696 10.6122C28.8233 10.3614 29.1431 10.0183 29.4615 9.60483C30.1771 8.67562 30.8024 7.49992 30.8024 6.27933C30.8024 5.05768 30.1771 3.88196 29.4616 2.95316C29.1432 2.53987 28.8234 2.19688 28.5698 1.94632C28.3161 2.19706 27.9963 2.54029 27.6778 2.95382C26.9621 3.88303 26.3368 5.05874 26.3368 6.27933C26.3368 7.49992 26.9621 8.67562 27.6778 9.60483C27.9962 10.0183 28.316 10.3614 28.5696 10.6122ZM28.0792 1.49739C28.0789 1.49721 28.079 1.49728 28.0792 1.49739V1.49739Z" fill="white"/>
<path fill-rule="evenodd" clip-rule="evenodd" d="M16.5064 12.6276C15.6685 12.7293 15.6686 12.7296 15.6686 12.7298L15.6689 12.7319L15.6694 12.736L15.6711 12.7483L15.677 12.7895C15.6821 12.8241 15.6896 12.8726 15.7001 12.9336C15.7209 13.0556 15.7533 13.2278 15.8005 13.4377C15.8946 13.8561 16.0493 14.4313 16.2932 15.0595C16.7707 16.2898 17.6396 17.8525 19.1941 18.7445C20.7482 19.6362 22.57 19.6196 23.9043 19.4305C24.5856 19.3339 25.1761 19.1872 25.5967 19.0648C25.8076 19.0034 25.9777 18.9475 26.097 18.9062C26.1568 18.8855 26.204 18.8684 26.2374 18.8561L26.2772 18.8412L26.289 18.8366L26.2929 18.8351L26.2944 18.8345C26.2946 18.8344 26.2955 18.8341 25.9806 18.0701L26.2944 18.8345C26.6503 18.695 26.8661 18.3387 26.8183 17.9675L25.9806 18.0701C26.8183 17.9675 26.8183 17.9678 26.8183 17.9675L26.818 17.9649L26.8174 17.9608L26.8157 17.9485L26.8098 17.9073C26.8047 17.8728 26.7971 17.8243 26.7866 17.7633C26.7656 17.6414 26.7331 17.4693 26.6858 17.2596C26.5913 16.8414 26.4362 16.2665 26.1921 15.6385C25.7142 14.4088 24.8455 12.8466 23.2938 11.9537C21.7397 11.062 19.9169 11.0781 18.5826 11.2672C17.9014 11.3637 17.3109 11.5104 16.8903 11.6329C16.6793 11.6943 16.5093 11.7501 16.3899 11.7915C16.3302 11.8121 16.283 11.8292 16.2495 11.8416L16.2098 11.8565L16.1979 11.861L16.194 11.8626L16.1926 11.8631C16.1923 11.8632 16.1915 11.8635 16.5064 12.6276ZM17.4724 13.1826C17.5549 13.5326 17.6827 13.9876 17.8724 14.4765C18.2985 15.5744 18.9876 16.7153 20.0503 17.3251C21.1136 17.9352 22.4709 17.9694 23.6615 17.8007C24.1912 17.7257 24.6604 17.6143 25.0139 17.5152C24.931 17.1654 24.803 16.7108 24.6132 16.2222C24.1865 15.1245 23.4974 13.9832 22.4362 13.3723C21.373 12.7625 20.0159 12.7282 18.8254 12.8969C18.2954 12.972 17.826 13.0835 17.4724 13.1826ZM16.5064 12.6276L16.1926 11.8631C15.837 12.0025 15.6212 12.3589 15.6686 12.7298L16.5064 12.6276ZM16.8201 13.3921C16.8198 13.3922 16.8199 13.3921 16.8201 13.3921V13.3921Z" fill="white"/>
<path fill-rule="evenodd" clip-rule="evenodd" d="M22.0754 16.0991C22.322 15.6874 22.8248 15.5737 23.1986 15.8453L28.9026 19.9893C29.2763 20.2608 29.3795 20.8147 29.1329 21.2264C28.8864 21.6381 28.3836 21.7518 28.0098 21.4802L22.3058 17.3362C21.9321 17.0647 21.8289 16.5108 22.0754 16.0991Z" fill="white"/>
<path fill-rule="evenodd" clip-rule="evenodd" d="M41.295 11.8633C41.2953 11.8634 41.2955 11.8635 40.9806 12.6276C41.8185 12.7293 41.8184 12.7296 41.8184 12.7298L41.8181 12.7319L41.8176 12.736L41.8159 12.7483L41.81 12.7895C41.8049 12.8241 41.7973 12.8726 41.7869 12.9336C41.7661 13.0556 41.7337 13.2278 41.6865 13.4377C41.5924 13.8561 41.4377 14.4313 41.1938 15.0595C40.7163 16.2898 39.8474 17.8525 38.2929 18.7445C36.7388 19.6362 34.9169 19.6196 33.5827 19.4305C32.9014 19.3339 32.3109 19.1872 31.8903 19.0648C31.6793 19.0034 31.5093 18.9475 31.3899 18.9062C31.3302 18.8855 31.283 18.8684 31.2495 18.8561L31.2098 18.8412L31.1979 18.8366L31.194 18.8351L31.1926 18.8345C31.1923 18.8344 31.1915 18.8341 31.5064 18.0701C30.6686 17.9675 30.6687 17.9672 30.6687 17.967L30.669 17.9649L30.6695 17.9608L30.6712 17.9485L30.6771 17.9073C30.6823 17.8728 30.6899 17.8243 30.7004 17.7633C30.7213 17.6414 30.7538 17.4693 30.8012 17.2596C30.8956 16.8414 31.0508 16.2665 31.2948 15.6385C31.7727 14.4088 32.6414 12.8466 34.1932 11.9537C35.7473 11.062 37.57 11.0781 38.9043 11.2672C39.5856 11.3637 40.1761 11.5104 40.5967 11.6329C40.8077 11.6943 40.9777 11.7501 41.0971 11.7915C41.1568 11.8121 41.204 11.8292 41.2375 11.8416L41.2772 11.8565L41.2891 11.861L41.293 11.8626L41.295 11.8633ZM31.5064 18.0701L30.6687 17.967C30.6209 18.3381 30.8367 18.695 31.1926 18.8345L31.5064 18.0701ZM32.4731 17.5152C32.8266 17.6143 33.2958 17.7257 33.8255 17.8007C35.016 17.9694 36.3734 17.9352 37.4366 17.3251C38.4994 16.7153 39.1885 15.5744 39.6146 14.4765C39.8043 13.9876 39.9321 13.5326 40.0146 13.1826C39.661 13.0835 39.1915 12.972 38.6615 12.8969C37.4711 12.7282 36.114 12.7625 35.0508 13.3723C33.9895 13.9832 33.3004 15.1245 32.8738 16.2222C32.6839 16.7108 32.5559 17.1654 32.4731 17.5152ZM40.9806 12.6276L41.8184 12.7298C41.8657 12.3589 41.6506 12.0027 41.295 11.8633L40.9806 12.6276Z" fill="white"/>
<path fill-rule="evenodd" clip-rule="evenodd" d="M35.7371 16.0991C36.0306 16.5108 35.9078 17.0647 35.4629 17.3362L28.6724 21.4802C28.2275 21.7518 27.6288 21.6381 27.3354 21.2264C27.0419 20.8147 27.1647 20.2608 27.6096 19.9893L34.4001 15.8453C34.845 15.5737 35.4437 15.6874 35.7371 16.0991Z" fill="white"/>
<path fill-rule="evenodd" clip-rule="evenodd" d="M41.6047 29.8483C37.6882 27.5504 33.1721 26.3358 28.5659 26.3415C23.9598 26.3473 19.447 27.5732 15.537 29.881C15.1477 30.1107 14.6356 29.9979 14.3932 29.6289C14.1508 29.2599 14.2698 28.7746 14.6591 28.5448C18.8319 26.082 23.648 24.7736 28.5637 24.7675C33.4795 24.7613 38.2991 26.0576 42.4788 28.51C42.8687 28.7388 42.9892 29.2238 42.7478 29.5934C42.5064 29.963 41.9946 30.0771 41.6047 29.8483Z" fill="white"/>
<path d="M53.3379 25.1984V6.53065H61.4999C62.689 6.53065 63.7431 6.79733 64.662 7.33069C65.5989 7.86406 66.3376 8.59299 66.8781 9.51749C67.4367 10.442 67.716 11.482 67.716 12.6377C67.716 13.8466 67.4367 14.9311 66.8781 15.8912C66.3376 16.8335 65.5989 17.5802 64.662 18.1313C63.7431 18.6825 62.689 18.958 61.4999 18.958H57.9324V25.1984H53.3379ZM57.8513 14.9845H60.8512C61.2476 14.9845 61.608 14.8867 61.9323 14.6911C62.2566 14.4955 62.5179 14.2289 62.7161 13.8911C62.9143 13.5533 63.0134 13.1621 63.0134 12.7177C63.0134 12.2554 62.9143 11.8643 62.7161 11.5443C62.5179 11.2242 62.2566 10.9753 61.9323 10.7976C61.608 10.6198 61.2476 10.5309 60.8512 10.5309H57.8513V14.9845Z" fill="white"/>
<path d="M70.7999 25.1984V5.46392H75.1242V25.1984H70.7999Z" fill="white"/>
<path d="M84.0144 25.4384C82.8072 25.4384 81.7262 25.1273 80.7712 24.505C79.8343 23.865 79.0866 22.9938 78.528 21.8915C77.9695 20.7715 77.6902 19.5092 77.6902 18.1046C77.6902 16.6646 77.9695 15.3934 78.528 14.2911C79.0866 13.1888 79.8523 12.3265 80.8253 11.7043C81.7982 11.0642 82.9063 10.7442 84.1495 10.7442C84.8342 10.7442 85.4558 10.842 86.0144 11.0376C86.5909 11.2331 87.0954 11.5087 87.5278 11.8643C87.9603 12.2021 88.3296 12.6021 88.6359 13.0644C88.9422 13.5088 89.1674 13.9889 89.3116 14.5044L88.4197 14.3978V11.0376H92.7169V25.1984H88.3386V21.7849L89.3116 21.7582C89.1674 22.256 88.9332 22.7271 88.6089 23.1716C88.2846 23.6161 87.8882 24.0072 87.4197 24.345C86.9513 24.6828 86.4288 24.9495 85.8522 25.145C85.2756 25.3406 84.663 25.4384 84.0144 25.4384ZM85.2036 21.8382C85.8702 21.8382 86.4468 21.6871 86.9333 21.3848C87.4197 21.0826 87.7981 20.6559 88.0684 20.1048C88.3386 19.5358 88.4738 18.8691 88.4738 18.1046C88.4738 17.3402 88.3386 16.6823 88.0684 16.1312C87.7981 15.5623 87.4197 15.1267 86.9333 14.8245C86.4468 14.5044 85.8702 14.3444 85.2036 14.3444C84.5549 14.3444 83.9874 14.5044 83.5009 14.8245C83.0324 15.1267 82.6631 15.5623 82.3928 16.1312C82.1225 16.6823 81.9874 17.3402 81.9874 18.1046C81.9874 18.8691 82.1225 19.5358 82.3928 20.1048C82.6631 20.6559 83.0324 21.0826 83.5009 21.3848C83.9874 21.6871 84.5549 21.8382 85.2036 21.8382Z" fill="white"/>
<path d="M96.5325 25.1984V11.0376H100.641L100.776 13.9177L99.9108 14.2378C100.109 13.5977 100.46 13.0199 100.965 12.5043C101.487 11.971 102.109 11.5443 102.83 11.2242C103.55 10.9042 104.307 10.7442 105.1 10.7442C106.181 10.7442 107.091 10.9665 107.83 11.4109C108.568 11.8376 109.127 12.4865 109.505 13.3577C109.884 14.2111 110.073 15.26 110.073 16.5046V25.1984H105.721V16.8512C105.721 16.2823 105.64 15.8112 105.478 15.4378C105.316 15.0645 105.064 14.7889 104.722 14.6111C104.397 14.4155 103.992 14.3266 103.505 14.3444C103.127 14.3444 102.776 14.4067 102.451 14.5311C102.127 14.6378 101.848 14.8067 101.613 15.0378C101.379 15.2511 101.19 15.5 101.046 15.7845C100.92 16.069 100.857 16.3801 100.857 16.7179V25.1984H98.7216C98.2171 25.1984 97.7847 25.1984 97.4244 25.1984C97.064 25.1984 96.7667 25.1984 96.5325 25.1984Z" fill="white"/>
<path d="M114.877 25.1984V7.46403H119.201V25.1984H114.877ZM112.337 14.7711V11.0376H121.985V14.7711H112.337Z" fill="white"/>
<path d="M124.7 25.1984V11.0376H129.024V25.1984H124.7ZM126.862 8.23741C126.051 8.23741 125.411 8.05073 124.943 7.67738C124.492 7.28625 124.267 6.7351 124.267 6.02395C124.267 5.38391 124.501 4.85944 124.97 4.45053C125.438 4.04161 126.069 3.83716 126.862 3.83716C127.672 3.83716 128.303 4.03273 128.754 4.42386C129.204 4.79721 129.429 5.33058 129.429 6.02395C129.429 6.68177 129.195 7.21513 128.727 7.62404C128.276 8.03295 127.654 8.23741 126.862 8.23741Z" fill="white"/>
<path d="M139.925 25.4651C138.339 25.4651 136.961 25.1539 135.789 24.5317C134.618 23.8916 133.708 23.0294 133.06 21.9449C132.411 20.8426 132.087 19.5892 132.087 18.1846C132.087 17.1001 132.267 16.1045 132.627 15.1978C132.988 14.2911 133.492 13.5088 134.141 12.851C134.789 12.1754 135.555 11.6598 136.438 11.3043C137.339 10.9309 138.321 10.7442 139.384 10.7442C140.393 10.7442 141.312 10.922 142.141 11.2776C142.988 11.6332 143.717 12.131 144.33 12.771C144.942 13.411 145.411 14.1666 145.735 15.0378C146.06 15.909 146.204 16.8601 146.168 17.8913L146.141 19.038H134.708L134.087 16.6379H142.627L142.168 17.1446V16.6112C142.132 16.1668 141.988 15.7756 141.735 15.4378C141.501 15.0822 141.186 14.8067 140.789 14.6111C140.393 14.4155 139.943 14.3178 139.438 14.3178C138.735 14.3178 138.132 14.46 137.627 14.7445C137.141 15.0111 136.771 15.4112 136.519 15.9445C136.267 16.4601 136.141 17.1001 136.141 17.8646C136.141 18.6469 136.303 19.3314 136.627 19.9181C136.97 20.487 137.456 20.9315 138.087 21.2515C138.735 21.5715 139.501 21.7315 140.384 21.7315C140.997 21.7315 141.537 21.6426 142.006 21.4648C142.492 21.287 143.015 20.9848 143.573 20.5581L145.6 23.3849C145.042 23.865 144.447 24.2561 143.816 24.5583C143.186 24.8606 142.537 25.0828 141.87 25.2251C141.222 25.3851 140.573 25.4651 139.925 25.4651Z" fill="white"/>
<path d="M153.76 25.4651C152.355 25.4651 151.112 25.2428 150.031 24.7984C148.968 24.3539 148.121 23.7583 147.49 23.0116L150.112 20.7715C150.67 21.3226 151.301 21.7315 152.004 21.9982C152.706 22.2471 153.373 22.3716 154.004 22.3716C154.256 22.3716 154.481 22.3449 154.679 22.2915C154.877 22.2382 155.04 22.1671 155.166 22.0782C155.31 21.9715 155.418 21.856 155.49 21.7315C155.562 21.5893 155.598 21.4293 155.598 21.2515C155.598 20.8959 155.436 20.6203 155.112 20.4248C154.95 20.3359 154.679 20.2292 154.301 20.1048C153.923 19.9803 153.436 19.8381 152.841 19.6781C151.995 19.4647 151.256 19.2158 150.625 18.9314C150.013 18.6291 149.508 18.2824 149.112 17.8913C148.751 17.5179 148.472 17.109 148.274 16.6646C148.076 16.2023 147.977 15.6867 147.977 15.1178C147.977 14.46 148.13 13.8644 148.436 13.331C148.76 12.7977 149.184 12.3354 149.706 11.9443C150.247 11.5532 150.86 11.2598 151.544 11.0642C152.247 10.8509 152.968 10.7442 153.706 10.7442C154.499 10.7442 155.256 10.8331 155.977 11.0109C156.697 11.1887 157.364 11.4376 157.977 11.7576C158.607 12.0776 159.166 12.4599 159.652 12.9043L157.382 15.4112C157.058 15.1089 156.688 14.8422 156.274 14.6111C155.877 14.3622 155.463 14.1666 155.031 14.0244C154.598 13.8822 154.202 13.8111 153.841 13.8111C153.571 13.8111 153.328 13.8377 153.112 13.8911C152.914 13.9266 152.742 13.9977 152.598 14.1044C152.454 14.1933 152.346 14.3089 152.274 14.4511C152.202 14.5756 152.166 14.7267 152.166 14.9045C152.166 15.0822 152.211 15.2511 152.301 15.4112C152.409 15.5712 152.553 15.7045 152.733 15.8112C152.914 15.9179 153.202 16.0423 153.598 16.1845C153.995 16.309 154.535 16.469 155.22 16.6646C156.067 16.8957 156.796 17.1535 157.409 17.4379C158.022 17.7224 158.508 18.0602 158.868 18.4513C159.157 18.7536 159.373 19.1091 159.517 19.5181C159.661 19.9092 159.733 20.3359 159.733 20.7981C159.733 21.7048 159.472 22.5138 158.949 23.2249C158.445 23.9183 157.742 24.4695 156.841 24.8784C155.941 25.2695 154.914 25.4651 153.76 25.4651Z" fill="white"/>
<path d="M12.336 42.576L10.14 51H7.656L6.312 45.456L4.92 51H2.436L0.3 42.576H2.496L3.708 48.708L5.208 42.576H7.464L8.904 48.708L10.128 42.576H12.336ZM14.3971 43.608C14.0371 43.608 13.7411 43.504 13.5091 43.296C13.2851 43.08 13.1731 42.816 13.1731 42.504C13.1731 42.184 13.2851 41.92 13.5091 41.712C13.7411 41.496 14.0371 41.388 14.3971 41.388C14.7491 41.388 15.0371 41.496 15.2611 41.712C15.4931 41.92 15.6091 42.184 15.6091 42.504C15.6091 42.816 15.4931 43.08 15.2611 43.296C15.0371 43.504 14.7491 43.608 14.3971 43.608ZM15.4171 44.304V51H13.3651V44.304H15.4171ZM20.6362 49.26V51H19.5922C18.8482 51 18.2682 50.82 17.8522 50.46C17.4362 50.092 17.2282 49.496 17.2282 48.672V46.008H16.4122V44.304H17.2282V42.672H19.2802V44.304H20.6242V46.008H19.2802V48.696C19.2802 48.896 19.3282 49.04 19.4242 49.128C19.5202 49.216 19.6802 49.26 19.9042 49.26H20.6362ZM25.8952 44.232C26.6632 44.232 27.2792 44.488 27.7432 45C28.2072 45.504 28.4392 46.2 28.4392 47.088V51H26.3992V47.364C26.3992 46.916 26.2832 46.568 26.0512 46.32C25.8192 46.072 25.5072 45.948 25.1152 45.948C24.7232 45.948 24.4112 46.072 24.1792 46.32C23.9472 46.568 23.8312 46.916 23.8312 47.364V51H21.7792V42.12H23.8312V45.204C24.0392 44.908 24.3232 44.672 24.6832 44.496C25.0432 44.32 25.4472 44.232 25.8952 44.232ZM38.8281 45.288C38.8281 45.776 38.7161 46.224 38.4921 46.632C38.2681 47.032 37.9241 47.356 37.4601 47.604C36.9961 47.852 36.4201 47.976 35.7321 47.976H34.4601V51H32.4081V42.576H35.7321C36.4041 42.576 36.9721 42.692 37.4361 42.924C37.9001 43.156 38.2481 43.476 38.4801 43.884C38.7121 44.292 38.8281 44.76 38.8281 45.288ZM35.5761 46.344C35.9681 46.344 36.2601 46.252 36.4521 46.068C36.6441 45.884 36.7401 45.624 36.7401 45.288C36.7401 44.952 36.6441 44.692 36.4521 44.508C36.2601 44.324 35.9681 44.232 35.5761 44.232H34.4601V46.344H35.5761ZM41.9483 42.12V51H39.8963V42.12H41.9483ZM43.0274 47.64C43.0274 46.952 43.1554 46.348 43.4114 45.828C43.6754 45.308 44.0314 44.908 44.4794 44.628C44.9274 44.348 45.4274 44.208 45.9794 44.208C46.4514 44.208 46.8634 44.304 47.2154 44.496C47.5754 44.688 47.8514 44.94 48.0434 45.252V44.304H50.0954V51H48.0434V50.052C47.8434 50.364 47.5634 50.616 47.2034 50.808C46.8514 51 46.4394 51.096 45.9674 51.096C45.4234 51.096 44.9274 50.956 44.4794 50.676C44.0314 50.388 43.6754 49.984 43.4114 49.464C43.1554 48.936 43.0274 48.328 43.0274 47.64ZM48.0434 47.652C48.0434 47.14 47.8994 46.736 47.6114 46.44C47.3314 46.144 46.9874 45.996 46.5794 45.996C46.1714 45.996 45.8234 46.144 45.5354 46.44C45.2554 46.728 45.1154 47.128 45.1154 47.64C45.1154 48.152 45.2554 48.56 45.5354 48.864C45.8234 49.16 46.1714 49.308 46.5794 49.308C46.9874 49.308 47.3314 49.16 47.6114 48.864C47.8994 48.568 48.0434 48.164 48.0434 47.652ZM55.6599 44.232C56.4439 44.232 57.0679 44.488 57.5319 45C58.0039 45.504 58.2399 46.2 58.2399 47.088V51H56.1999V47.364C56.1999 46.916 56.0839 46.568 55.8519 46.32C55.6199 46.072 55.3079 45.948 54.9159 45.948C54.5239 45.948 54.2119 46.072 53.9799 46.32C53.7479 46.568 53.6319 46.916 53.6319 47.364V51H51.5799V44.304H53.6319V45.192C53.8399 44.896 54.1199 44.664 54.4719 44.496C54.8239 44.32 55.2199 44.232 55.6599 44.232ZM63.3979 49.26V51H62.3539C61.6099 51 61.0299 50.82 60.6139 50.46C60.1979 50.092 59.9899 49.496 59.9899 48.672V46.008H59.1739V44.304H59.9899V42.672H62.0419V44.304H63.3859V46.008H62.0419V48.696C62.0419 48.896 62.0899 49.04 62.1859 49.128C62.2819 49.216 62.4419 49.26 62.6659 49.26H63.3979ZM65.5729 43.608C65.2129 43.608 64.9169 43.504 64.6849 43.296C64.4609 43.08 64.3489 42.816 64.3489 42.504C64.3489 42.184 64.4609 41.92 64.6849 41.712C64.9169 41.496 65.2129 41.388 65.5729 41.388C65.9249 41.388 66.2129 41.496 66.4369 41.712C66.6689 41.92 66.7849 42.184 66.7849 42.504C66.7849 42.816 66.6689 43.08 66.4369 43.296C66.2129 43.504 65.9249 43.608 65.5729 43.608ZM66.5929 44.304V51H64.5409V44.304H66.5929ZM74.3919 47.544C74.3919 47.736 74.3799 47.936 74.3559 48.144H69.7119C69.7439 48.56 69.8759 48.88 70.1079 49.104C70.3479 49.32 70.6399 49.428 70.9839 49.428C71.4959 49.428 71.8519 49.212 72.0519 48.78H74.2359C74.1239 49.22 73.9199 49.616 73.6239 49.968C73.3359 50.32 72.9719 50.596 72.5319 50.796C72.0919 50.996 71.5999 51.096 71.0559 51.096C70.3999 51.096 69.8159 50.956 69.3039 50.676C68.7919 50.396 68.3919 49.996 68.1039 49.476C67.8159 48.956 67.6719 48.348 67.6719 47.652C67.6719 46.956 67.8119 46.348 68.0919 45.828C68.3799 45.308 68.7799 44.908 69.2919 44.628C69.8039 44.348 70.3919 44.208 71.0559 44.208C71.7039 44.208 72.2799 44.344 72.7839 44.616C73.2879 44.888 73.6799 45.276 73.9599 45.78C74.2479 46.284 74.3919 46.872 74.3919 47.544ZM72.2919 47.004C72.2919 46.652 72.1719 46.372 71.9319 46.164C71.6919 45.956 71.3919 45.852 71.0319 45.852C70.6879 45.852 70.3959 45.952 70.1559 46.152C69.9239 46.352 69.7799 46.636 69.7239 47.004H72.2919ZM78.1985 51.096C77.6145 51.096 77.0945 50.996 76.6385 50.796C76.1825 50.596 75.8225 50.324 75.5585 49.98C75.2945 49.628 75.1465 49.236 75.1145 48.804H77.1425C77.1665 49.036 77.2745 49.224 77.4665 49.368C77.6585 49.512 77.8945 49.584 78.1745 49.584C78.4305 49.584 78.6265 49.536 78.7625 49.44C78.9065 49.336 78.9785 49.204 78.9785 49.044C78.9785 48.852 78.8785 48.712 78.6785 48.624C78.4785 48.528 78.1545 48.424 77.7065 48.312C77.2265 48.2 76.8265 48.084 76.5065 47.964C76.1865 47.836 75.9105 47.64 75.6785 47.376C75.4465 47.104 75.3305 46.74 75.3305 46.284C75.3305 45.9 75.4345 45.552 75.6425 45.24C75.8585 44.92 76.1705 44.668 76.5785 44.484C76.9945 44.3 77.4865 44.208 78.0545 44.208C78.8945 44.208 79.5545 44.416 80.0345 44.832C80.5225 45.248 80.8025 45.8 80.8745 46.488H78.9785C78.9465 46.256 78.8425 46.072 78.6665 45.936C78.4985 45.8 78.2745 45.732 77.9945 45.732C77.7545 45.732 77.5705 45.78 77.4425 45.876C77.3145 45.964 77.2505 46.088 77.2505 46.248C77.2505 46.44 77.3505 46.584 77.5505 46.68C77.7585 46.776 78.0785 46.872 78.5105 46.968C79.0065 47.096 79.4105 47.224 79.7225 47.352C80.0345 47.472 80.3065 47.672 80.5385 47.952C80.7785 48.224 80.9025 48.592 80.9105 49.056C80.9105 49.448 80.7985 49.8 80.5745 50.112C80.3585 50.416 80.0425 50.656 79.6265 50.832C79.2185 51.008 78.7425 51.096 78.1985 51.096ZM91.1288 45.288C91.1288 45.776 91.0168 46.224 90.7928 46.632C90.5688 47.032 90.2248 47.356 89.7608 47.604C89.2968 47.852 88.7208 47.976 88.0328 47.976H86.7608V51H84.7088V42.576H88.0328C88.7048 42.576 89.2728 42.692 89.7368 42.924C90.2008 43.156 90.5488 43.476 90.7808 43.884C91.0128 44.292 91.1288 44.76 91.1288 45.288ZM87.8768 46.344C88.2688 46.344 88.5608 46.252 88.7528 46.068C88.9448 45.884 89.0408 45.624 89.0408 45.288C89.0408 44.952 88.9448 44.692 88.7528 44.508C88.5608 44.324 88.2688 44.232 87.8768 44.232H86.7608V46.344H87.8768ZM94.2491 42.12V51H92.1971V42.12H94.2491ZM95.3282 47.64C95.3282 46.952 95.4562 46.348 95.7122 45.828C95.9762 45.308 96.3322 44.908 96.7802 44.628C97.2282 44.348 97.7282 44.208 98.2802 44.208C98.7522 44.208 99.1642 44.304 99.5162 44.496C99.8762 44.688 100.152 44.94 100.344 45.252V44.304H102.396V51H100.344V50.052C100.144 50.364 99.8642 50.616 99.5042 50.808C99.1522 51 98.7402 51.096 98.2682 51.096C97.7242 51.096 97.2282 50.956 96.7802 50.676C96.3322 50.388 95.9762 49.984 95.7122 49.464C95.4562 48.936 95.3282 48.328 95.3282 47.64ZM100.344 47.652C100.344 47.14 100.2 46.736 99.9122 46.44C99.6322 46.144 99.2882 45.996 98.8802 45.996C98.4722 45.996 98.1242 46.144 97.8362 46.44C97.5562 46.728 97.4162 47.128 97.4162 47.64C97.4162 48.152 97.5562 48.56 97.8362 48.864C98.1242 49.16 98.4722 49.308 98.8802 49.308C99.2882 49.308 99.6322 49.16 99.9122 48.864C100.2 48.568 100.344 48.164 100.344 47.652ZM107.961 44.232C108.745 44.232 109.369 44.488 109.833 45C110.305 45.504 110.541 46.2 110.541 47.088V51H108.501V47.364C108.501 46.916 108.385 46.568 108.153 46.32C107.921 46.072 107.609 45.948 107.217 45.948C106.825 45.948 106.513 46.072 106.281 46.32C106.049 46.568 105.933 46.916 105.933 47.364V51H103.881V44.304H105.933V45.192C106.141 44.896 106.421 44.664 106.773 44.496C107.125 44.32 107.521 44.232 107.961 44.232ZM115.699 49.26V51H114.655C113.911 51 113.331 50.82 112.915 50.46C112.499 50.092 112.291 49.496 112.291 48.672V46.008H111.475V44.304H112.291V42.672H114.343V44.304H115.687V46.008H114.343V48.696C114.343 48.896 114.391 49.04 114.487 49.128C114.583 49.216 114.743 49.26 114.967 49.26H115.699ZM123.682 44.304L119.482 54.18H117.274L118.81 50.772L116.086 44.304H118.378L119.926 48.492L121.462 44.304H123.682ZM130.951 51.084C130.159 51.084 129.431 50.9 128.767 50.532C128.111 50.164 127.587 49.652 127.195 48.996C126.811 48.332 126.619 47.588 126.619 46.764C126.619 45.94 126.811 45.2 127.195 44.544C127.587 43.888 128.111 43.376 128.767 43.008C129.431 42.64 130.159 42.456 130.951 42.456C131.743 42.456 132.467 42.64 133.123 43.008C133.787 43.376 134.307 43.888 134.683 44.544C135.067 45.2 135.259 45.94 135.259 46.764C135.259 47.588 135.067 48.332 134.683 48.996C134.299 49.652 133.779 50.164 133.123 50.532C132.467 50.9 131.743 51.084 130.951 51.084ZM130.951 49.212C131.623 49.212 132.159 48.988 132.559 48.54C132.967 48.092 133.171 47.5 133.171 46.764C133.171 46.02 132.967 45.428 132.559 44.988C132.159 44.54 131.623 44.316 130.951 44.316C130.271 44.316 129.727 44.536 129.319 44.976C128.919 45.416 128.719 46.012 128.719 46.764C128.719 47.508 128.919 48.104 129.319 48.552C129.727 48.992 130.271 49.212 130.951 49.212ZM140.36 51L139.076 49.14L137.996 51H135.776L137.984 47.58L135.716 44.304H138.02L139.304 46.152L140.384 44.304H142.604L140.36 47.676L142.664 51H140.36ZM150.295 44.304L146.095 54.18H143.887L145.423 50.772L142.699 44.304H144.991L146.539 48.492L148.075 44.304H150.295ZM153.581 44.208C154.053 44.208 154.465 44.304 154.817 44.496C155.177 44.688 155.453 44.94 155.645 45.252V44.304H157.697V50.988C157.697 51.604 157.573 52.16 157.325 52.656C157.085 53.16 156.713 53.56 156.209 53.856C155.713 54.152 155.093 54.3 154.349 54.3C153.357 54.3 152.553 54.064 151.937 53.592C151.321 53.128 150.969 52.496 150.881 51.696H152.909C152.973 51.952 153.125 52.152 153.365 52.296C153.605 52.448 153.901 52.524 154.253 52.524C154.677 52.524 155.013 52.4 155.261 52.152C155.517 51.912 155.645 51.524 155.645 50.988V50.04C155.445 50.352 155.169 50.608 154.817 50.808C154.465 51 154.053 51.096 153.581 51.096C153.029 51.096 152.529 50.956 152.081 50.676C151.633 50.388 151.277 49.984 151.013 49.464C150.757 48.936 150.629 48.328 150.629 47.64C150.629 46.952 150.757 46.348 151.013 45.828C151.277 45.308 151.633 44.908 152.081 44.628C152.529 44.348 153.029 44.208 153.581 44.208ZM155.645 47.652C155.645 47.14 155.501 46.736 155.213 46.44C154.933 46.144 154.589 45.996 154.181 45.996C153.773 45.996 153.425 46.144 153.137 46.44C152.857 46.728 152.717 47.128 152.717 47.64C152.717 48.152 152.857 48.56 153.137 48.864C153.425 49.16 153.773 49.308 154.181 49.308C154.589 49.308 154.933 49.16 155.213 48.864C155.501 48.568 155.645 48.164 155.645 47.652ZM165.493 47.544C165.493 47.736 165.482 47.936 165.458 48.144H160.814C160.846 48.56 160.978 48.88 161.21 49.104C161.45 49.32 161.742 49.428 162.086 49.428C162.598 49.428 162.954 49.212 163.154 48.78H165.338C165.226 49.22 165.022 49.616 164.726 49.968C164.438 50.32 164.074 50.596 163.634 50.796C163.194 50.996 162.702 51.096 162.158 51.096C161.502 51.096 160.918 50.956 160.406 50.676C159.894 50.396 159.494 49.996 159.206 49.476C158.918 48.956 158.774 48.348 158.774 47.652C158.774 46.956 158.914 46.348 159.194 45.828C159.482 45.308 159.882 44.908 160.394 44.628C160.906 44.348 161.494 44.208 162.158 44.208C162.806 44.208 163.382 44.344 163.886 44.616C164.39 44.888 164.782 45.276 165.062 45.78C165.35 46.284 165.493 46.872 165.493 47.544ZM163.394 47.004C163.394 46.652 163.274 46.372 163.034 46.164C162.794 45.956 162.494 45.852 162.134 45.852C161.79 45.852 161.498 45.952 161.258 46.152C161.026 46.352 160.882 46.636 160.826 47.004H163.394ZM170.656 44.232C171.44 44.232 172.064 44.488 172.528 45C173 45.504 173.236 46.2 173.236 47.088V51H171.196V47.364C171.196 46.916 171.08 46.568 170.848 46.32C170.616 46.072 170.304 45.948 169.912 45.948C169.52 45.948 169.208 46.072 168.976 46.32C168.744 46.568 168.628 46.916 168.628 47.364V51H166.576V44.304H168.628V45.192C168.836 44.896 169.116 44.664 169.468 44.496C169.82 44.32 170.216 44.232 170.656 44.232Z" fill="white"/>
</svg>
