<svg width="326" height="167" viewBox="0 0 326 167" fill="none" xmlns="http://www.w3.org/2000/svg">
<g clip-path="url(#clip0_1_7)">
<rect width="326" height="167" fill="white"/>
<path d="M335.831 117.13L295.25 93.701C282.41 86.2877 266.59 86.2877 253.75 93.701L213.169 117.13C200.329 124.544 192.419 138.244 192.419 153.071V199.929C192.419 214.756 200.329 228.456 213.169 235.87L253.75 259.299C266.59 266.712 282.41 266.712 295.25 259.299L335.831 235.87C348.671 228.456 356.581 214.756 356.581 199.929V153.071C356.581 138.244 348.671 124.544 335.831 117.13Z" stroke="#EFF6FF" stroke-width="23"/>
<path d="M94.8311 -81.8695L54.25 -105.299C41.4099 -112.712 25.5901 -112.712 12.75 -105.299L-27.8311 -81.8695C-40.6712 -74.4563 -48.5811 -60.756 -48.5811 -45.9295V0.929497C-48.5811 15.756 -40.6712 29.4563 -27.8311 36.8696L12.75 60.299C25.5901 67.7123 41.4099 67.7123 54.25 60.299L94.8311 36.8696C107.671 29.4563 115.581 15.756 115.581 0.929489V-45.9295C115.581 -60.756 107.671 -74.4563 94.8311 -81.8695Z" stroke="#DBEAFE" stroke-width="23"/>
</g>
<defs>
<clipPath id="clip0_1_7">
<rect width="326" height="167" fill="white"/>
</clipPath>
</defs>
</svg>
