<svg width="24" height="24" viewBox="0 0 24 24" fill="none" xmlns="http://www.w3.org/2000/svg">
<g clip-path="url(#clip0_528_3925)">
<g filter="url(#filter0_diii_528_3925)">
<path d="M12 19.5C12.2449 19.5 12.4813 19.59 12.6644 19.7527C12.8474 19.9155 12.9643 20.1397 12.993 20.383L13 20.5V21.5C12.9997 21.7549 12.9021 22 12.7272 22.1854C12.5522 22.3707 12.313 22.4822 12.0586 22.4972C11.8042 22.5121 11.5536 22.4293 11.3582 22.2657C11.1627 22.1021 11.0371 21.8701 11.007 21.617L11 21.5V20.5C11 20.2348 11.1054 19.9804 11.2929 19.7929C11.4804 19.6054 11.7348 19.5 12 19.5Z" fill="url(#paint0_linear_528_3925)"/>
<path d="M12 19.5C12.2449 19.5 12.4813 19.59 12.6644 19.7527C12.8474 19.9155 12.9643 20.1397 12.993 20.383L13 20.5V21.5C12.9997 21.7549 12.9021 22 12.7272 22.1854C12.5522 22.3707 12.313 22.4822 12.0586 22.4972C11.8042 22.5121 11.5536 22.4293 11.3582 22.2657C11.1627 22.1021 11.0371 21.8701 11.007 21.617L11 21.5V20.5C11 20.2348 11.1054 19.9804 11.2929 19.7929C11.4804 19.6054 11.7348 19.5 12 19.5Z" stroke="url(#paint1_linear_528_3925)"/>
</g>
<g filter="url(#filter1_diii_528_3925)">
<path d="M18.3127 17.4099L18.4067 17.4929L19.1067 18.1929C19.2861 18.3729 19.3902 18.6144 19.398 18.8683C19.4057 19.1223 19.3165 19.3697 19.1485 19.5602C18.9804 19.7508 18.7462 19.8702 18.4933 19.8943C18.2403 19.9184 17.9877 19.8454 17.7867 19.6899L17.6927 19.6069L16.9927 18.9069C16.8202 18.7347 16.7165 18.5053 16.7012 18.2619C16.6859 18.0186 16.76 17.778 16.9097 17.5855C17.0593 17.393 17.2741 17.2618 17.5137 17.2166C17.7533 17.1713 18.0012 17.2152 18.2107 17.3399L18.3127 17.4099Z" fill="url(#paint2_linear_528_3925)"/>
<path d="M18.3127 17.4099L18.4067 17.4929L19.1067 18.1929C19.2861 18.3729 19.3902 18.6144 19.398 18.8683C19.4057 19.1223 19.3165 19.3697 19.1485 19.5602C18.9804 19.7508 18.7462 19.8702 18.4933 19.8943C18.2403 19.9184 17.9877 19.8454 17.7867 19.6899L17.6927 19.6069L16.9927 18.9069C16.8202 18.7347 16.7165 18.5053 16.7012 18.2619C16.6859 18.0186 16.76 17.778 16.9097 17.5855C17.0593 17.393 17.2741 17.2618 17.5137 17.2166C17.7533 17.1713 18.0012 17.2152 18.2107 17.3399L18.3127 17.4099Z" stroke="url(#paint3_linear_528_3925)"/>
</g>
<g filter="url(#filter2_diii_528_3925)">
<path d="M7.00747 17.493C7.17965 17.6652 7.28308 17.8943 7.29836 18.1373C7.31364 18.3803 7.23972 18.6206 7.09047 18.813L7.00747 18.907L6.30747 19.607C6.12751 19.7863 5.88604 19.8905 5.63209 19.8982C5.37814 19.906 5.13076 19.8168 4.94019 19.6487C4.74963 19.4807 4.63017 19.2464 4.60607 18.9935C4.58198 18.7406 4.65506 18.488 4.81047 18.287L4.89347 18.193L5.59347 17.493C5.781 17.3055 6.03531 17.2002 6.30047 17.2002C6.56563 17.2002 6.81994 17.3055 7.00747 17.493Z" fill="url(#paint4_linear_528_3925)"/>
<path d="M7.00747 17.493C7.17965 17.6652 7.28308 17.8943 7.29836 18.1373C7.31364 18.3803 7.23972 18.6206 7.09047 18.813L7.00747 18.907L6.30747 19.607C6.12751 19.7863 5.88604 19.8905 5.63209 19.8982C5.37814 19.906 5.13076 19.8168 4.94019 19.6487C4.74963 19.4807 4.63017 19.2464 4.60607 18.9935C4.58198 18.7406 4.65506 18.488 4.81047 18.287L4.89347 18.193L5.59347 17.493C5.781 17.3055 6.03531 17.2002 6.30047 17.2002C6.56563 17.2002 6.81994 17.3055 7.00747 17.493Z" stroke="url(#paint5_linear_528_3925)"/>
</g>
<g filter="url(#filter3_diii_528_3925)">
<path d="M4.00085 11.5C4.25572 11.5003 4.50088 11.5979 4.68621 11.7728C4.87155 11.9478 4.98308 12.187 4.99802 12.4414C5.01295 12.6958 4.93017 12.9464 4.76658 13.1418C4.60299 13.3373 4.37094 13.4629 4.11785 13.493L4.00085 13.5H3.00085C2.74597 13.4997 2.50081 13.4021 2.31548 13.2272C2.13014 13.0522 2.01861 12.813 2.00367 12.5586C1.98874 12.3042 2.07152 12.0536 2.23511 11.8582C2.3987 11.6627 2.63075 11.5371 2.88385 11.507L3.00085 11.5H4.00085Z" fill="url(#paint6_linear_528_3925)"/>
<path d="M4.00085 11.5C4.25572 11.5003 4.50088 11.5979 4.68621 11.7728C4.87155 11.9478 4.98308 12.187 4.99802 12.4414C5.01295 12.6958 4.93017 12.9464 4.76658 13.1418C4.60299 13.3373 4.37094 13.4629 4.11785 13.493L4.00085 13.5H3.00085C2.74597 13.4997 2.50081 13.4021 2.31548 13.2272C2.13014 13.0522 2.01861 12.813 2.00367 12.5586C1.98874 12.3042 2.07152 12.0536 2.23511 11.8582C2.3987 11.6627 2.63075 11.5371 2.88385 11.507L3.00085 11.5H4.00085Z" stroke="url(#paint7_linear_528_3925)"/>
</g>
<g filter="url(#filter4_diii_528_3925)">
<path d="M21.0008 11.5C21.2557 11.5003 21.5009 11.5979 21.6862 11.7728C21.8715 11.9478 21.9831 12.187 21.998 12.4414C22.013 12.6958 21.9302 12.9464 21.7666 13.1418C21.603 13.3373 21.3709 13.4629 21.1178 13.493L21.0008 13.5H20.0008C19.746 13.4997 19.5008 13.4021 19.3155 13.2272C19.1301 13.0522 19.0186 12.813 19.0037 12.5586C18.9887 12.3042 19.0715 12.0536 19.2351 11.8582C19.3987 11.6627 19.6307 11.5371 19.8838 11.507L20.0008 11.5H21.0008Z" fill="url(#paint8_linear_528_3925)"/>
<path d="M21.0008 11.5C21.2557 11.5003 21.5009 11.5979 21.6862 11.7728C21.8715 11.9478 21.9831 12.187 21.998 12.4414C22.013 12.6958 21.9302 12.9464 21.7666 13.1418C21.603 13.3373 21.3709 13.4629 21.1178 13.493L21.0008 13.5H20.0008C19.746 13.4997 19.5008 13.4021 19.3155 13.2272C19.1301 13.0522 19.0186 12.813 19.0037 12.5586C18.9887 12.3042 19.0715 12.0536 19.2351 11.8582C19.3987 11.6627 19.6307 11.5371 19.8838 11.507L20.0008 11.5H21.0008Z" stroke="url(#paint9_linear_528_3925)"/>
</g>
<g filter="url(#filter5_diii_528_3925)">
<path d="M6.21361 5.30985L6.30762 5.39285L7.00761 6.09285C7.18696 6.27281 7.29109 6.51429 7.29884 6.76824C7.3066 7.02219 7.2174 7.26957 7.04937 7.46013C6.88133 7.6507 6.64706 7.77016 6.39414 7.79425C6.14122 7.81834 5.88861 7.74526 5.68761 7.58985L5.59361 7.50685L4.89362 6.80685C4.7217 6.63453 4.61855 6.40543 4.60348 6.16248C4.58842 5.91954 4.66248 5.67945 4.81178 5.48721C4.96108 5.29497 5.17537 5.16378 5.41448 5.11824C5.65359 5.07271 5.9011 5.11594 6.11062 5.23985L6.21361 5.30985Z" fill="url(#paint10_linear_528_3925)"/>
<path d="M6.21361 5.30985L6.30762 5.39285L7.00761 6.09285C7.18696 6.27281 7.29109 6.51429 7.29884 6.76824C7.3066 7.02219 7.2174 7.26957 7.04937 7.46013C6.88133 7.6507 6.64706 7.77016 6.39414 7.79425C6.14122 7.81834 5.88861 7.74526 5.68761 7.58985L5.59361 7.50685L4.89362 6.80685C4.7217 6.63453 4.61855 6.40543 4.60348 6.16248C4.58842 5.91954 4.66248 5.67945 4.81178 5.48721C4.96108 5.29497 5.17537 5.16378 5.41448 5.11824C5.65359 5.07271 5.9011 5.11594 6.11062 5.23985L6.21361 5.30985Z" stroke="url(#paint11_linear_528_3925)"/>
</g>
<g filter="url(#filter6_diii_528_3925)">
<path d="M19.1071 5.39288C19.2793 5.56508 19.3827 5.79418 19.398 6.0372C19.4132 6.28023 19.3393 6.52048 19.1901 6.71288L19.1071 6.80688L18.4071 7.50688C18.2271 7.68623 17.9856 7.79036 17.7317 7.79811C17.4777 7.80587 17.2304 7.71667 17.0398 7.54864C16.8492 7.3806 16.7298 7.14633 16.7057 6.89341C16.6816 6.64049 16.7547 6.38788 16.9101 6.18688L16.9931 6.09288L17.6931 5.39288C17.8806 5.20541 18.1349 5.1001 18.4001 5.1001C18.6652 5.1001 18.9196 5.20541 19.1071 5.39288Z" fill="url(#paint12_linear_528_3925)"/>
<path d="M19.1071 5.39288C19.2793 5.56508 19.3827 5.79418 19.398 6.0372C19.4132 6.28023 19.3393 6.52048 19.1901 6.71288L19.1071 6.80688L18.4071 7.50688C18.2271 7.68623 17.9856 7.79036 17.7317 7.79811C17.4777 7.80587 17.2304 7.71667 17.0398 7.54864C16.8492 7.3806 16.7298 7.14633 16.7057 6.89341C16.6816 6.64049 16.7547 6.38788 16.9101 6.18688L16.9931 6.09288L17.6931 5.39288C17.8806 5.20541 18.1349 5.1001 18.4001 5.1001C18.6652 5.1001 18.9196 5.20541 19.1071 5.39288Z" stroke="url(#paint13_linear_528_3925)"/>
</g>
<g filter="url(#filter7_diii_528_3925)">
<path d="M12 2.5C12.2449 2.50003 12.4813 2.58996 12.6644 2.75272C12.8474 2.91547 12.9643 3.13975 12.993 3.383L13 3.5V4.5C12.9997 4.75488 12.9021 5.00003 12.7272 5.18537C12.5522 5.3707 12.313 5.48223 12.0586 5.49717C11.8042 5.51211 11.5536 5.42933 11.3582 5.26574C11.1627 5.10214 11.0371 4.8701 11.007 4.617L11 4.5V3.5C11 3.23478 11.1054 2.98043 11.2929 2.79289C11.4804 2.60536 11.7348 2.5 12 2.5Z" fill="url(#paint14_linear_528_3925)"/>
<path d="M12 2.5C12.2449 2.50003 12.4813 2.58996 12.6644 2.75272C12.8474 2.91547 12.9643 3.13975 12.993 3.383L13 3.5V4.5C12.9997 4.75488 12.9021 5.00003 12.7272 5.18537C12.5522 5.3707 12.313 5.48223 12.0586 5.49717C11.8042 5.51211 11.5536 5.42933 11.3582 5.26574C11.1627 5.10214 11.0371 4.8701 11.007 4.617L11 4.5V3.5C11 3.23478 11.1054 2.98043 11.2929 2.79289C11.4804 2.60536 11.7348 2.5 12 2.5Z" stroke="url(#paint15_linear_528_3925)"/>
</g>
<g filter="url(#filter8_diii_528_3925)">
<path d="M12 7.5C12.9797 7.49994 13.9378 7.78769 14.7553 8.3275C15.5729 8.86731 16.2138 9.6354 16.5986 10.5364C16.9833 11.4373 17.0949 12.4315 16.9195 13.3953C16.7441 14.3592 16.2893 15.2502 15.6118 15.9579C14.9343 16.6655 14.0638 17.1585 13.1085 17.3756C12.1532 17.5928 11.1552 17.5245 10.2383 17.1793C9.3215 16.834 8.52629 16.2271 7.95146 15.4338C7.37663 14.6405 7.04752 13.6958 7.005 12.717L7 12.5L7.005 12.283C7.06092 10.9958 7.61161 9.77978 8.54222 8.88866C9.47284 7.99754 10.7115 7.50007 12 7.5Z" fill="url(#paint16_linear_528_3925)"/>
<path d="M12 7.5C12.9797 7.49994 13.9378 7.78769 14.7553 8.3275C15.5729 8.86731 16.2138 9.6354 16.5986 10.5364C16.9833 11.4373 17.0949 12.4315 16.9195 13.3953C16.7441 14.3592 16.2893 15.2502 15.6118 15.9579C14.9343 16.6655 14.0638 17.1585 13.1085 17.3756C12.1532 17.5928 11.1552 17.5245 10.2383 17.1793C9.3215 16.834 8.52629 16.2271 7.95146 15.4338C7.37663 14.6405 7.04752 13.6958 7.005 12.717L7 12.5L7.005 12.283C7.06092 10.9958 7.61161 9.77978 8.54222 8.88866C9.47284 7.99754 10.7115 7.50007 12 7.5Z" stroke="url(#paint17_linear_528_3925)"/>
</g>
</g>
<defs>
<filter id="filter0_diii_528_3925" x="-9" y="11.5" width="42" height="42.999" filterUnits="userSpaceOnUse" color-interpolation-filters="sRGB">
<feFlood flood-opacity="0" result="BackgroundImageFix"/>
<feColorMatrix in="SourceAlpha" type="matrix" values="0 0 0 0 0 0 0 0 0 0 0 0 0 0 0 0 0 0 127 0" result="hardAlpha"/>
<feOffset dy="12"/>
<feGaussianBlur stdDeviation="10"/>
<feComposite in2="hardAlpha" operator="out"/>
<feColorMatrix type="matrix" values="0 0 0 0 1 0 0 0 0 0.721569 0 0 0 0 0.396078 0 0 0 0.25 0"/>
<feBlend mode="normal" in2="BackgroundImageFix" result="effect1_dropShadow_528_3925"/>
<feBlend mode="normal" in="SourceGraphic" in2="effect1_dropShadow_528_3925" result="shape"/>
<feColorMatrix in="SourceAlpha" type="matrix" values="0 0 0 0 0 0 0 0 0 0 0 0 0 0 0 0 0 0 127 0" result="hardAlpha"/>
<feOffset dy="4"/>
<feGaussianBlur stdDeviation="4"/>
<feComposite in2="hardAlpha" operator="arithmetic" k2="-1" k3="1"/>
<feColorMatrix type="matrix" values="0 0 0 0 1 0 0 0 0 1 0 0 0 0 1 0 0 0 0.35 0"/>
<feBlend mode="normal" in2="shape" result="effect2_innerShadow_528_3925"/>
<feColorMatrix in="SourceAlpha" type="matrix" values="0 0 0 0 0 0 0 0 0 0 0 0 0 0 0 0 0 0 127 0" result="hardAlpha"/>
<feOffset dy="-1"/>
<feGaussianBlur stdDeviation="1.5"/>
<feComposite in2="hardAlpha" operator="arithmetic" k2="-1" k3="1"/>
<feColorMatrix type="matrix" values="0 0 0 0 0 0 0 0 0 0 0 0 0 0 0 0 0 0 0.05 0"/>
<feBlend mode="normal" in2="effect2_innerShadow_528_3925" result="effect3_innerShadow_528_3925"/>
<feColorMatrix in="SourceAlpha" type="matrix" values="0 0 0 0 0 0 0 0 0 0 0 0 0 0 0 0 0 0 127 0" result="hardAlpha"/>
<feOffset dy="2"/>
<feGaussianBlur stdDeviation="3"/>
<feComposite in2="hardAlpha" operator="arithmetic" k2="-1" k3="1"/>
<feColorMatrix type="matrix" values="0 0 0 0 1 0 0 0 0 1 0 0 0 0 1 0 0 0 0.25 0"/>
<feBlend mode="normal" in2="effect3_innerShadow_528_3925" result="effect4_innerShadow_528_3925"/>
</filter>
<filter id="filter1_diii_528_3925" x="-3.30078" y="9.19922" width="42.6992" height="42.6997" filterUnits="userSpaceOnUse" color-interpolation-filters="sRGB">
<feFlood flood-opacity="0" result="BackgroundImageFix"/>
<feColorMatrix in="SourceAlpha" type="matrix" values="0 0 0 0 0 0 0 0 0 0 0 0 0 0 0 0 0 0 127 0" result="hardAlpha"/>
<feOffset dy="12"/>
<feGaussianBlur stdDeviation="10"/>
<feComposite in2="hardAlpha" operator="out"/>
<feColorMatrix type="matrix" values="0 0 0 0 1 0 0 0 0 0.721569 0 0 0 0 0.396078 0 0 0 0.25 0"/>
<feBlend mode="normal" in2="BackgroundImageFix" result="effect1_dropShadow_528_3925"/>
<feBlend mode="normal" in="SourceGraphic" in2="effect1_dropShadow_528_3925" result="shape"/>
<feColorMatrix in="SourceAlpha" type="matrix" values="0 0 0 0 0 0 0 0 0 0 0 0 0 0 0 0 0 0 127 0" result="hardAlpha"/>
<feOffset dy="4"/>
<feGaussianBlur stdDeviation="4"/>
<feComposite in2="hardAlpha" operator="arithmetic" k2="-1" k3="1"/>
<feColorMatrix type="matrix" values="0 0 0 0 1 0 0 0 0 1 0 0 0 0 1 0 0 0 0.35 0"/>
<feBlend mode="normal" in2="shape" result="effect2_innerShadow_528_3925"/>
<feColorMatrix in="SourceAlpha" type="matrix" values="0 0 0 0 0 0 0 0 0 0 0 0 0 0 0 0 0 0 127 0" result="hardAlpha"/>
<feOffset dy="-1"/>
<feGaussianBlur stdDeviation="1.5"/>
<feComposite in2="hardAlpha" operator="arithmetic" k2="-1" k3="1"/>
<feColorMatrix type="matrix" values="0 0 0 0 0 0 0 0 0 0 0 0 0 0 0 0 0 0 0.05 0"/>
<feBlend mode="normal" in2="effect2_innerShadow_528_3925" result="effect3_innerShadow_528_3925"/>
<feColorMatrix in="SourceAlpha" type="matrix" values="0 0 0 0 0 0 0 0 0 0 0 0 0 0 0 0 0 0 127 0" result="hardAlpha"/>
<feOffset dy="2"/>
<feGaussianBlur stdDeviation="3"/>
<feComposite in2="hardAlpha" operator="arithmetic" k2="-1" k3="1"/>
<feColorMatrix type="matrix" values="0 0 0 0 1 0 0 0 0 1 0 0 0 0 1 0 0 0 0.25 0"/>
<feBlend mode="normal" in2="effect3_innerShadow_528_3925" result="effect4_innerShadow_528_3925"/>
</filter>
<filter id="filter2_diii_528_3925" x="-15.3984" y="9.2002" width="42.6992" height="42.6982" filterUnits="userSpaceOnUse" color-interpolation-filters="sRGB">
<feFlood flood-opacity="0" result="BackgroundImageFix"/>
<feColorMatrix in="SourceAlpha" type="matrix" values="0 0 0 0 0 0 0 0 0 0 0 0 0 0 0 0 0 0 127 0" result="hardAlpha"/>
<feOffset dy="12"/>
<feGaussianBlur stdDeviation="10"/>
<feComposite in2="hardAlpha" operator="out"/>
<feColorMatrix type="matrix" values="0 0 0 0 1 0 0 0 0 0.721569 0 0 0 0 0.396078 0 0 0 0.25 0"/>
<feBlend mode="normal" in2="BackgroundImageFix" result="effect1_dropShadow_528_3925"/>
<feBlend mode="normal" in="SourceGraphic" in2="effect1_dropShadow_528_3925" result="shape"/>
<feColorMatrix in="SourceAlpha" type="matrix" values="0 0 0 0 0 0 0 0 0 0 0 0 0 0 0 0 0 0 127 0" result="hardAlpha"/>
<feOffset dy="4"/>
<feGaussianBlur stdDeviation="4"/>
<feComposite in2="hardAlpha" operator="arithmetic" k2="-1" k3="1"/>
<feColorMatrix type="matrix" values="0 0 0 0 1 0 0 0 0 1 0 0 0 0 1 0 0 0 0.35 0"/>
<feBlend mode="normal" in2="shape" result="effect2_innerShadow_528_3925"/>
<feColorMatrix in="SourceAlpha" type="matrix" values="0 0 0 0 0 0 0 0 0 0 0 0 0 0 0 0 0 0 127 0" result="hardAlpha"/>
<feOffset dy="-1"/>
<feGaussianBlur stdDeviation="1.5"/>
<feComposite in2="hardAlpha" operator="arithmetic" k2="-1" k3="1"/>
<feColorMatrix type="matrix" values="0 0 0 0 0 0 0 0 0 0 0 0 0 0 0 0 0 0 0.05 0"/>
<feBlend mode="normal" in2="effect2_innerShadow_528_3925" result="effect3_innerShadow_528_3925"/>
<feColorMatrix in="SourceAlpha" type="matrix" values="0 0 0 0 0 0 0 0 0 0 0 0 0 0 0 0 0 0 127 0" result="hardAlpha"/>
<feOffset dy="2"/>
<feGaussianBlur stdDeviation="3"/>
<feComposite in2="hardAlpha" operator="arithmetic" k2="-1" k3="1"/>
<feColorMatrix type="matrix" values="0 0 0 0 1 0 0 0 0 1 0 0 0 0 1 0 0 0 0.25 0"/>
<feBlend mode="normal" in2="effect3_innerShadow_528_3925" result="effect4_innerShadow_528_3925"/>
</filter>
<filter id="filter3_diii_528_3925" x="-17.998" y="3.5" width="42.998" height="42" filterUnits="userSpaceOnUse" color-interpolation-filters="sRGB">
<feFlood flood-opacity="0" result="BackgroundImageFix"/>
<feColorMatrix in="SourceAlpha" type="matrix" values="0 0 0 0 0 0 0 0 0 0 0 0 0 0 0 0 0 0 127 0" result="hardAlpha"/>
<feOffset dy="12"/>
<feGaussianBlur stdDeviation="10"/>
<feComposite in2="hardAlpha" operator="out"/>
<feColorMatrix type="matrix" values="0 0 0 0 1 0 0 0 0 0.721569 0 0 0 0 0.396078 0 0 0 0.25 0"/>
<feBlend mode="normal" in2="BackgroundImageFix" result="effect1_dropShadow_528_3925"/>
<feBlend mode="normal" in="SourceGraphic" in2="effect1_dropShadow_528_3925" result="shape"/>
<feColorMatrix in="SourceAlpha" type="matrix" values="0 0 0 0 0 0 0 0 0 0 0 0 0 0 0 0 0 0 127 0" result="hardAlpha"/>
<feOffset dy="4"/>
<feGaussianBlur stdDeviation="4"/>
<feComposite in2="hardAlpha" operator="arithmetic" k2="-1" k3="1"/>
<feColorMatrix type="matrix" values="0 0 0 0 1 0 0 0 0 1 0 0 0 0 1 0 0 0 0.35 0"/>
<feBlend mode="normal" in2="shape" result="effect2_innerShadow_528_3925"/>
<feColorMatrix in="SourceAlpha" type="matrix" values="0 0 0 0 0 0 0 0 0 0 0 0 0 0 0 0 0 0 127 0" result="hardAlpha"/>
<feOffset dy="-1"/>
<feGaussianBlur stdDeviation="1.5"/>
<feComposite in2="hardAlpha" operator="arithmetic" k2="-1" k3="1"/>
<feColorMatrix type="matrix" values="0 0 0 0 0 0 0 0 0 0 0 0 0 0 0 0 0 0 0.05 0"/>
<feBlend mode="normal" in2="effect2_innerShadow_528_3925" result="effect3_innerShadow_528_3925"/>
<feColorMatrix in="SourceAlpha" type="matrix" values="0 0 0 0 0 0 0 0 0 0 0 0 0 0 0 0 0 0 127 0" result="hardAlpha"/>
<feOffset dy="2"/>
<feGaussianBlur stdDeviation="3"/>
<feComposite in2="hardAlpha" operator="arithmetic" k2="-1" k3="1"/>
<feColorMatrix type="matrix" values="0 0 0 0 1 0 0 0 0 1 0 0 0 0 1 0 0 0 0.25 0"/>
<feBlend mode="normal" in2="effect3_innerShadow_528_3925" result="effect4_innerShadow_528_3925"/>
</filter>
<filter id="filter4_diii_528_3925" x="-0.998047" y="3.5" width="42.998" height="42" filterUnits="userSpaceOnUse" color-interpolation-filters="sRGB">
<feFlood flood-opacity="0" result="BackgroundImageFix"/>
<feColorMatrix in="SourceAlpha" type="matrix" values="0 0 0 0 0 0 0 0 0 0 0 0 0 0 0 0 0 0 127 0" result="hardAlpha"/>
<feOffset dy="12"/>
<feGaussianBlur stdDeviation="10"/>
<feComposite in2="hardAlpha" operator="out"/>
<feColorMatrix type="matrix" values="0 0 0 0 1 0 0 0 0 0.721569 0 0 0 0 0.396078 0 0 0 0.25 0"/>
<feBlend mode="normal" in2="BackgroundImageFix" result="effect1_dropShadow_528_3925"/>
<feBlend mode="normal" in="SourceGraphic" in2="effect1_dropShadow_528_3925" result="shape"/>
<feColorMatrix in="SourceAlpha" type="matrix" values="0 0 0 0 0 0 0 0 0 0 0 0 0 0 0 0 0 0 127 0" result="hardAlpha"/>
<feOffset dy="4"/>
<feGaussianBlur stdDeviation="4"/>
<feComposite in2="hardAlpha" operator="arithmetic" k2="-1" k3="1"/>
<feColorMatrix type="matrix" values="0 0 0 0 1 0 0 0 0 1 0 0 0 0 1 0 0 0 0.35 0"/>
<feBlend mode="normal" in2="shape" result="effect2_innerShadow_528_3925"/>
<feColorMatrix in="SourceAlpha" type="matrix" values="0 0 0 0 0 0 0 0 0 0 0 0 0 0 0 0 0 0 127 0" result="hardAlpha"/>
<feOffset dy="-1"/>
<feGaussianBlur stdDeviation="1.5"/>
<feComposite in2="hardAlpha" operator="arithmetic" k2="-1" k3="1"/>
<feColorMatrix type="matrix" values="0 0 0 0 0 0 0 0 0 0 0 0 0 0 0 0 0 0 0.05 0"/>
<feBlend mode="normal" in2="effect2_innerShadow_528_3925" result="effect3_innerShadow_528_3925"/>
<feColorMatrix in="SourceAlpha" type="matrix" values="0 0 0 0 0 0 0 0 0 0 0 0 0 0 0 0 0 0 127 0" result="hardAlpha"/>
<feOffset dy="2"/>
<feGaussianBlur stdDeviation="3"/>
<feComposite in2="hardAlpha" operator="arithmetic" k2="-1" k3="1"/>
<feColorMatrix type="matrix" values="0 0 0 0 1 0 0 0 0 1 0 0 0 0 1 0 0 0 0.25 0"/>
<feBlend mode="normal" in2="effect3_innerShadow_528_3925" result="effect4_innerShadow_528_3925"/>
</filter>
<filter id="filter5_diii_528_3925" x="-15.3984" y="-2.89941" width="42.6973" height="42.6982" filterUnits="userSpaceOnUse" color-interpolation-filters="sRGB">
<feFlood flood-opacity="0" result="BackgroundImageFix"/>
<feColorMatrix in="SourceAlpha" type="matrix" values="0 0 0 0 0 0 0 0 0 0 0 0 0 0 0 0 0 0 127 0" result="hardAlpha"/>
<feOffset dy="12"/>
<feGaussianBlur stdDeviation="10"/>
<feComposite in2="hardAlpha" operator="out"/>
<feColorMatrix type="matrix" values="0 0 0 0 1 0 0 0 0 0.721569 0 0 0 0 0.396078 0 0 0 0.25 0"/>
<feBlend mode="normal" in2="BackgroundImageFix" result="effect1_dropShadow_528_3925"/>
<feBlend mode="normal" in="SourceGraphic" in2="effect1_dropShadow_528_3925" result="shape"/>
<feColorMatrix in="SourceAlpha" type="matrix" values="0 0 0 0 0 0 0 0 0 0 0 0 0 0 0 0 0 0 127 0" result="hardAlpha"/>
<feOffset dy="4"/>
<feGaussianBlur stdDeviation="4"/>
<feComposite in2="hardAlpha" operator="arithmetic" k2="-1" k3="1"/>
<feColorMatrix type="matrix" values="0 0 0 0 1 0 0 0 0 1 0 0 0 0 1 0 0 0 0.35 0"/>
<feBlend mode="normal" in2="shape" result="effect2_innerShadow_528_3925"/>
<feColorMatrix in="SourceAlpha" type="matrix" values="0 0 0 0 0 0 0 0 0 0 0 0 0 0 0 0 0 0 127 0" result="hardAlpha"/>
<feOffset dy="-1"/>
<feGaussianBlur stdDeviation="1.5"/>
<feComposite in2="hardAlpha" operator="arithmetic" k2="-1" k3="1"/>
<feColorMatrix type="matrix" values="0 0 0 0 0 0 0 0 0 0 0 0 0 0 0 0 0 0 0.05 0"/>
<feBlend mode="normal" in2="effect2_innerShadow_528_3925" result="effect3_innerShadow_528_3925"/>
<feColorMatrix in="SourceAlpha" type="matrix" values="0 0 0 0 0 0 0 0 0 0 0 0 0 0 0 0 0 0 127 0" result="hardAlpha"/>
<feOffset dy="2"/>
<feGaussianBlur stdDeviation="3"/>
<feComposite in2="hardAlpha" operator="arithmetic" k2="-1" k3="1"/>
<feColorMatrix type="matrix" values="0 0 0 0 1 0 0 0 0 1 0 0 0 0 1 0 0 0 0.25 0"/>
<feBlend mode="normal" in2="effect3_innerShadow_528_3925" result="effect4_innerShadow_528_3925"/>
</filter>
<filter id="filter6_diii_528_3925" x="-3.29883" y="-2.8999" width="42.6992" height="42.6982" filterUnits="userSpaceOnUse" color-interpolation-filters="sRGB">
<feFlood flood-opacity="0" result="BackgroundImageFix"/>
<feColorMatrix in="SourceAlpha" type="matrix" values="0 0 0 0 0 0 0 0 0 0 0 0 0 0 0 0 0 0 127 0" result="hardAlpha"/>
<feOffset dy="12"/>
<feGaussianBlur stdDeviation="10"/>
<feComposite in2="hardAlpha" operator="out"/>
<feColorMatrix type="matrix" values="0 0 0 0 1 0 0 0 0 0.721569 0 0 0 0 0.396078 0 0 0 0.25 0"/>
<feBlend mode="normal" in2="BackgroundImageFix" result="effect1_dropShadow_528_3925"/>
<feBlend mode="normal" in="SourceGraphic" in2="effect1_dropShadow_528_3925" result="shape"/>
<feColorMatrix in="SourceAlpha" type="matrix" values="0 0 0 0 0 0 0 0 0 0 0 0 0 0 0 0 0 0 127 0" result="hardAlpha"/>
<feOffset dy="4"/>
<feGaussianBlur stdDeviation="4"/>
<feComposite in2="hardAlpha" operator="arithmetic" k2="-1" k3="1"/>
<feColorMatrix type="matrix" values="0 0 0 0 1 0 0 0 0 1 0 0 0 0 1 0 0 0 0.35 0"/>
<feBlend mode="normal" in2="shape" result="effect2_innerShadow_528_3925"/>
<feColorMatrix in="SourceAlpha" type="matrix" values="0 0 0 0 0 0 0 0 0 0 0 0 0 0 0 0 0 0 127 0" result="hardAlpha"/>
<feOffset dy="-1"/>
<feGaussianBlur stdDeviation="1.5"/>
<feComposite in2="hardAlpha" operator="arithmetic" k2="-1" k3="1"/>
<feColorMatrix type="matrix" values="0 0 0 0 0 0 0 0 0 0 0 0 0 0 0 0 0 0 0.05 0"/>
<feBlend mode="normal" in2="effect2_innerShadow_528_3925" result="effect3_innerShadow_528_3925"/>
<feColorMatrix in="SourceAlpha" type="matrix" values="0 0 0 0 0 0 0 0 0 0 0 0 0 0 0 0 0 0 127 0" result="hardAlpha"/>
<feOffset dy="2"/>
<feGaussianBlur stdDeviation="3"/>
<feComposite in2="hardAlpha" operator="arithmetic" k2="-1" k3="1"/>
<feColorMatrix type="matrix" values="0 0 0 0 1 0 0 0 0 1 0 0 0 0 1 0 0 0 0.25 0"/>
<feBlend mode="normal" in2="effect3_innerShadow_528_3925" result="effect4_innerShadow_528_3925"/>
</filter>
<filter id="filter7_diii_528_3925" x="-9" y="-5.5" width="42" height="42.999" filterUnits="userSpaceOnUse" color-interpolation-filters="sRGB">
<feFlood flood-opacity="0" result="BackgroundImageFix"/>
<feColorMatrix in="SourceAlpha" type="matrix" values="0 0 0 0 0 0 0 0 0 0 0 0 0 0 0 0 0 0 127 0" result="hardAlpha"/>
<feOffset dy="12"/>
<feGaussianBlur stdDeviation="10"/>
<feComposite in2="hardAlpha" operator="out"/>
<feColorMatrix type="matrix" values="0 0 0 0 1 0 0 0 0 0.721569 0 0 0 0 0.396078 0 0 0 0.25 0"/>
<feBlend mode="normal" in2="BackgroundImageFix" result="effect1_dropShadow_528_3925"/>
<feBlend mode="normal" in="SourceGraphic" in2="effect1_dropShadow_528_3925" result="shape"/>
<feColorMatrix in="SourceAlpha" type="matrix" values="0 0 0 0 0 0 0 0 0 0 0 0 0 0 0 0 0 0 127 0" result="hardAlpha"/>
<feOffset dy="4"/>
<feGaussianBlur stdDeviation="4"/>
<feComposite in2="hardAlpha" operator="arithmetic" k2="-1" k3="1"/>
<feColorMatrix type="matrix" values="0 0 0 0 1 0 0 0 0 1 0 0 0 0 1 0 0 0 0.35 0"/>
<feBlend mode="normal" in2="shape" result="effect2_innerShadow_528_3925"/>
<feColorMatrix in="SourceAlpha" type="matrix" values="0 0 0 0 0 0 0 0 0 0 0 0 0 0 0 0 0 0 127 0" result="hardAlpha"/>
<feOffset dy="-1"/>
<feGaussianBlur stdDeviation="1.5"/>
<feComposite in2="hardAlpha" operator="arithmetic" k2="-1" k3="1"/>
<feColorMatrix type="matrix" values="0 0 0 0 0 0 0 0 0 0 0 0 0 0 0 0 0 0 0.05 0"/>
<feBlend mode="normal" in2="effect2_innerShadow_528_3925" result="effect3_innerShadow_528_3925"/>
<feColorMatrix in="SourceAlpha" type="matrix" values="0 0 0 0 0 0 0 0 0 0 0 0 0 0 0 0 0 0 127 0" result="hardAlpha"/>
<feOffset dy="2"/>
<feGaussianBlur stdDeviation="3"/>
<feComposite in2="hardAlpha" operator="arithmetic" k2="-1" k3="1"/>
<feColorMatrix type="matrix" values="0 0 0 0 1 0 0 0 0 1 0 0 0 0 1 0 0 0 0.25 0"/>
<feBlend mode="normal" in2="effect3_innerShadow_528_3925" result="effect4_innerShadow_528_3925"/>
</filter>
<filter id="filter8_diii_528_3925" x="-13" y="-0.5" width="50" height="50" filterUnits="userSpaceOnUse" color-interpolation-filters="sRGB">
<feFlood flood-opacity="0" result="BackgroundImageFix"/>
<feColorMatrix in="SourceAlpha" type="matrix" values="0 0 0 0 0 0 0 0 0 0 0 0 0 0 0 0 0 0 127 0" result="hardAlpha"/>
<feOffset dy="12"/>
<feGaussianBlur stdDeviation="10"/>
<feComposite in2="hardAlpha" operator="out"/>
<feColorMatrix type="matrix" values="0 0 0 0 1 0 0 0 0 0.721569 0 0 0 0 0.396078 0 0 0 0.25 0"/>
<feBlend mode="normal" in2="BackgroundImageFix" result="effect1_dropShadow_528_3925"/>
<feBlend mode="normal" in="SourceGraphic" in2="effect1_dropShadow_528_3925" result="shape"/>
<feColorMatrix in="SourceAlpha" type="matrix" values="0 0 0 0 0 0 0 0 0 0 0 0 0 0 0 0 0 0 127 0" result="hardAlpha"/>
<feOffset dy="4"/>
<feGaussianBlur stdDeviation="4"/>
<feComposite in2="hardAlpha" operator="arithmetic" k2="-1" k3="1"/>
<feColorMatrix type="matrix" values="0 0 0 0 1 0 0 0 0 1 0 0 0 0 1 0 0 0 0.35 0"/>
<feBlend mode="normal" in2="shape" result="effect2_innerShadow_528_3925"/>
<feColorMatrix in="SourceAlpha" type="matrix" values="0 0 0 0 0 0 0 0 0 0 0 0 0 0 0 0 0 0 127 0" result="hardAlpha"/>
<feOffset dy="-1"/>
<feGaussianBlur stdDeviation="1.5"/>
<feComposite in2="hardAlpha" operator="arithmetic" k2="-1" k3="1"/>
<feColorMatrix type="matrix" values="0 0 0 0 0 0 0 0 0 0 0 0 0 0 0 0 0 0 0.05 0"/>
<feBlend mode="normal" in2="effect2_innerShadow_528_3925" result="effect3_innerShadow_528_3925"/>
<feColorMatrix in="SourceAlpha" type="matrix" values="0 0 0 0 0 0 0 0 0 0 0 0 0 0 0 0 0 0 127 0" result="hardAlpha"/>
<feOffset dy="2"/>
<feGaussianBlur stdDeviation="3"/>
<feComposite in2="hardAlpha" operator="arithmetic" k2="-1" k3="1"/>
<feColorMatrix type="matrix" values="0 0 0 0 1 0 0 0 0 1 0 0 0 0 1 0 0 0 0.25 0"/>
<feBlend mode="normal" in2="effect3_innerShadow_528_3925" result="effect4_innerShadow_528_3925"/>
</filter>
<linearGradient id="paint0_linear_528_3925" x1="13" y1="22.4989" x2="10.9247" y2="22.4459" gradientUnits="userSpaceOnUse">
<stop stop-color="#FFD233"/>
<stop offset="1" stop-color="#FFB865"/>
</linearGradient>
<linearGradient id="paint1_linear_528_3925" x1="13" y1="22.4989" x2="10.9247" y2="22.4459" gradientUnits="userSpaceOnUse">
<stop stop-color="#FFD233"/>
<stop offset="1" stop-color="#FFB865"/>
</linearGradient>
<linearGradient id="paint2_linear_528_3925" x1="19.3984" y1="19.8989" x2="16.5999" y2="19.7917" gradientUnits="userSpaceOnUse">
<stop stop-color="#FFD233"/>
<stop offset="1" stop-color="#FFB865"/>
</linearGradient>
<linearGradient id="paint3_linear_528_3925" x1="19.3984" y1="19.8989" x2="16.5999" y2="19.7917" gradientUnits="userSpaceOnUse">
<stop stop-color="#FFD233"/>
<stop offset="1" stop-color="#FFB865"/>
</linearGradient>
<linearGradient id="paint4_linear_528_3925" x1="7.30033" y1="19.8987" x2="4.50229" y2="19.7915" gradientUnits="userSpaceOnUse">
<stop stop-color="#FFD233"/>
<stop offset="1" stop-color="#FFB865"/>
</linearGradient>
<linearGradient id="paint5_linear_528_3925" x1="7.30033" y1="19.8987" x2="4.50229" y2="19.7915" gradientUnits="userSpaceOnUse">
<stop stop-color="#FFD233"/>
<stop offset="1" stop-color="#FFB865"/>
</linearGradient>
<linearGradient id="paint6_linear_528_3925" x1="4.99974" y1="13.5" x2="1.89735" y2="13.3219" gradientUnits="userSpaceOnUse">
<stop stop-color="#FFD233"/>
<stop offset="1" stop-color="#FFB865"/>
</linearGradient>
<linearGradient id="paint7_linear_528_3925" x1="4.99974" y1="13.5" x2="1.89735" y2="13.3219" gradientUnits="userSpaceOnUse">
<stop stop-color="#FFD233"/>
<stop offset="1" stop-color="#FFB865"/>
</linearGradient>
<linearGradient id="paint8_linear_528_3925" x1="21.9997" y1="13.5" x2="18.8973" y2="13.3219" gradientUnits="userSpaceOnUse">
<stop stop-color="#FFD233"/>
<stop offset="1" stop-color="#FFB865"/>
</linearGradient>
<linearGradient id="paint9_linear_528_3925" x1="21.9997" y1="13.5" x2="18.8973" y2="13.3219" gradientUnits="userSpaceOnUse">
<stop stop-color="#FFD233"/>
<stop offset="1" stop-color="#FFB865"/>
</linearGradient>
<linearGradient id="paint10_linear_528_3925" x1="7.29931" y1="7.79876" x2="4.50233" y2="7.69164" gradientUnits="userSpaceOnUse">
<stop stop-color="#FFD233"/>
<stop offset="1" stop-color="#FFB865"/>
</linearGradient>
<linearGradient id="paint11_linear_528_3925" x1="7.29931" y1="7.79876" x2="4.50233" y2="7.69164" gradientUnits="userSpaceOnUse">
<stop stop-color="#FFD233"/>
<stop offset="1" stop-color="#FFB865"/>
</linearGradient>
<linearGradient id="paint12_linear_528_3925" x1="19.3999" y1="7.79858" x2="16.6019" y2="7.69139" gradientUnits="userSpaceOnUse">
<stop stop-color="#FFD233"/>
<stop offset="1" stop-color="#FFB865"/>
</linearGradient>
<linearGradient id="paint13_linear_528_3925" x1="19.3999" y1="7.79858" x2="16.6019" y2="7.69139" gradientUnits="userSpaceOnUse">
<stop stop-color="#FFD233"/>
<stop offset="1" stop-color="#FFB865"/>
</linearGradient>
<linearGradient id="paint14_linear_528_3925" x1="13" y1="5.49889" x2="10.9247" y2="5.44588" gradientUnits="userSpaceOnUse">
<stop stop-color="#FFD233"/>
<stop offset="1" stop-color="#FFB865"/>
</linearGradient>
<linearGradient id="paint15_linear_528_3925" x1="13" y1="5.49889" x2="10.9247" y2="5.44588" gradientUnits="userSpaceOnUse">
<stop stop-color="#FFD233"/>
<stop offset="1" stop-color="#FFB865"/>
</linearGradient>
<linearGradient id="paint16_linear_528_3925" x1="17.0003" y1="17.5" x2="6.63215" y2="17.1028" gradientUnits="userSpaceOnUse">
<stop stop-color="#FFD233"/>
<stop offset="1" stop-color="#FFB865"/>
</linearGradient>
<linearGradient id="paint17_linear_528_3925" x1="17.0003" y1="17.5" x2="6.63215" y2="17.1028" gradientUnits="userSpaceOnUse">
<stop stop-color="#FFD233"/>
<stop offset="1" stop-color="#FFB865"/>
</linearGradient>
<clipPath id="clip0_528_3925">
<rect width="24" height="24" fill="white" transform="translate(0 0.5)"/>
</clipPath>
</defs>
</svg>
