<svg width="48" height="82" viewBox="0 0 48 82" fill="none" xmlns="http://www.w3.org/2000/svg">
<path d="M19.3328 82C8.63336 82 0 73.3645 0 62.7363C0 57.1269 2.32437 52.2187 6.71483 48.2331C7.52652 47.532 7.6741 47.0891 7.6741 45.982V12.6211C7.6741 5.12961 12.3966 0 19.3328 0C26.1952 0 30.8809 5.12961 30.8809 12.6211V45.982C30.8809 47.0891 31.0653 47.532 31.8401 48.2331C36.2675 52.2187 38.555 57.1269 38.555 62.7363C38.555 73.3645 29.9585 82 19.3328 82ZM19.3328 76.649C26.9331 76.649 33.1683 70.3753 33.1683 62.7363C33.1683 58.1233 30.9915 53.9532 27.0807 51.333C25.937 50.5581 25.4942 49.8569 25.4942 48.3438V12.8425C25.4942 8.41404 22.9485 5.42484 19.3328 5.42484C15.6434 5.42484 13.0976 8.41404 13.0976 12.8425V48.3438C13.0976 49.8569 12.6549 50.5581 11.5111 51.333C7.60031 53.9532 5.42352 58.1233 5.42352 62.7363C5.42352 70.3753 11.6218 76.649 19.3328 76.649ZM37.8171 13.5437C36.5257 13.5437 35.6403 12.5473 35.6403 11.4032C35.6403 10.2592 36.5257 9.26283 37.8171 9.26283H45.8232C47.1145 9.26283 48 10.2592 48 11.4032C48 12.5473 47.1145 13.5437 45.8232 13.5437H37.8171ZM37.8171 23.9136C36.5257 23.9136 35.6403 22.9172 35.6403 21.7732C35.6403 20.6292 36.5257 19.6328 37.8171 19.6328H45.8232C47.1145 19.6328 48 20.6292 48 21.7732C48 22.9172 47.1145 23.9136 45.8232 23.9136H37.8171ZM19.2959 71.667C14.352 71.667 10.3674 67.6814 10.3674 62.6994C10.3674 59.2304 12.3228 56.3888 15.1637 54.8389C16.3444 54.2115 16.7502 53.7687 16.7502 51.9604V32.2169C16.7502 30.4455 17.857 29.3015 19.2959 29.3015C20.6979 29.3015 21.8417 30.4455 21.8417 32.2169V51.9604C21.8417 53.7687 22.2475 54.2115 23.4281 54.8389C26.269 56.3888 28.2244 59.2304 28.2244 62.6994C28.2244 67.6814 24.2398 71.667 19.2959 71.667ZM37.8171 34.2835C36.5257 34.2835 35.6403 33.2871 35.6403 32.1431C35.6403 30.9991 36.5257 29.9658 37.8171 29.9658H45.8232C47.1145 29.9658 48 30.9991 48 32.1431C48 33.2871 47.1145 34.2835 45.8232 34.2835H37.8171ZM37.8171 44.6535C36.5257 44.6535 35.6403 43.6571 35.6403 42.5131C35.6403 41.3321 36.5257 40.3357 37.8171 40.3357H45.8232C47.1145 40.3357 48 41.3321 48 42.5131C48 43.6571 47.1145 44.6535 45.8232 44.6535H37.8171Z" fill="black"/>
</svg>
