<svg width="327" height="61" viewBox="0 0 327 61" fill="none" xmlns="http://www.w3.org/2000/svg">
<path d="M0 20.8L5.71667 18.5597C11.4333 16.4031 22.8667 11.7969 34.3 14.1C45.7333 16.4031 57.1667 25.1969 68.6 29.7403C80.0333 34.2 91.4667 34.2 102.9 27.5C114.333 20.8 125.767 7.4 137.2 2.94032C148.633 -1.60312 160.067 3.00313 171.5 4.05C182.933 5.09688 194.367 3.00313 205.8 10.75C217.233 18.4969 228.667 36.5031 240.1 40.9C251.533 45.2969 262.967 36.5031 274.4 36.4403C285.833 36.5031 297.267 45.2969 308.7 49.8403C320.133 54.3 331.567 54.3 337.283 54.3H343V61H337.283C331.567 61 320.133 61 308.7 61C297.267 61 285.833 61 274.4 61C262.967 61 251.533 61 240.1 61C228.667 61 217.233 61 205.8 61C194.367 61 182.933 61 171.5 61C160.067 61 148.633 61 137.2 61C125.767 61 114.333 61 102.9 61C91.4667 61 80.0333 61 68.6 61C57.1667 61 45.7333 61 34.3 61C22.8667 61 11.4333 61 5.71667 61H0V20.8Z" fill="#029475"/>
</svg>
