<svg width="283" height="171" viewBox="0 0 283 171" fill="none" xmlns="http://www.w3.org/2000/svg">
<g clip-path="url(#clip0_1_19)">
<path d="M150.285 136.9C102.725 167.432 67.2852 137.4 14.2944 186.4C-24.7125 222.469 68.4944 261.3 119.294 272.9C182.794 287.4 229.294 245.4 306.794 215.9C384.294 186.4 408.294 138.4 441.794 93.4001C475.294 48.4001 407.5 2.53122 353 8.53122C303.569 13.9731 271.187 31.1368 237.285 55.4001C199.427 82.4949 189.462 111.75 150.285 136.9Z" fill="#079C7C" fill-opacity="0.1"/>
<path d="M163.285 148.9C115.725 179.432 80.2852 149.4 27.2944 198.4C-11.7125 234.469 81.4944 273.3 132.294 284.9C195.794 299.4 242.294 257.4 319.794 227.9C397.294 198.4 421.294 150.4 454.794 105.4C488.294 60.4001 420.5 14.5312 366 20.5312C316.569 25.9731 284.187 43.1368 250.285 67.4001C212.427 94.4949 202.462 123.75 163.285 148.9Z" fill="#079C7C" fill-opacity="0.1"/>
</g>
<defs>
<clipPath id="clip0_1_19">
<rect width="283" height="171" rx="16" fill="white"/>
</clipPath>
</defs>
</svg>
