<svg width="36" height="36" viewBox="0 0 36 36" fill="none" xmlns="http://www.w3.org/2000/svg">
<rect width="36" height="36" rx="18" fill="#E53636"/>
<path d="M17.99 7.96802C19.013 7.96802 19.96 8.48902 20.502 9.32702L20.605 9.49902L27.705 21.749L27.767 21.875C27.9444 22.3137 28.0155 22.7881 27.9745 23.2595C27.9335 23.7308 27.7816 24.1859 27.5312 24.5873C27.2808 24.9888 26.9389 25.3253 26.5336 25.5695C26.1283 25.8136 25.671 25.9584 25.199 25.992L25 26H11L10.951 25.997L10.839 25.999C10.3936 25.9761 9.95893 25.8542 9.56659 25.6421C9.17426 25.43 8.83415 25.1331 8.57101 24.773L8.46201 24.613C8.22385 24.2388 8.07163 23.8165 8.0163 23.3764C7.96096 22.9364 8.0039 22.4895 8.14201 22.068L8.21401 21.874L8.27401 21.749L15.366 9.51602C15.6254 9.04705 16.0057 8.65612 16.4673 8.38389C16.9289 8.11165 17.4551 7.96805 17.991 7.96802H17.99ZM18.01 20L17.883 20.007C17.64 20.0359 17.416 20.153 17.2534 20.336C17.0909 20.519 17.0011 20.7553 17.0011 21C17.0011 21.2448 17.0909 21.481 17.2534 21.6641C17.416 21.8471 17.64 21.9641 17.883 21.993L18 22L18.127 21.993C18.3701 21.9641 18.5941 21.8471 18.7566 21.6641C18.9191 21.481 19.0089 21.2448 19.0089 21C19.0089 20.7553 18.9191 20.519 18.7566 20.336C18.5941 20.153 18.3701 20.0359 18.127 20.007L18.01 20ZM18 14C17.7551 14 17.5187 14.09 17.3356 14.2527C17.1526 14.4155 17.0357 14.6398 17.007 14.883L17 15V17L17.007 17.117C17.0359 17.3601 17.153 17.5841 17.336 17.7466C17.519 17.9091 17.7552 17.9989 18 17.9989C18.2448 17.9989 18.481 17.9091 18.664 17.7466C18.8471 17.5841 18.9641 17.3601 18.993 17.117L19 17V15L18.993 14.883C18.9644 14.6398 18.8474 14.4155 18.6644 14.2527C18.4813 14.09 18.2449 14 18 14Z" fill="white"/>
</svg>
