<svg width="36" height="36" viewBox="0 0 36 36" fill="none" xmlns="http://www.w3.org/2000/svg">
<rect width="36" height="36" rx="18" fill="#079C7C"/>
<path d="M18.01 8.01099C18.7878 8.01103 19.5389 8.29436 20.123 8.80799L20.277 8.95299L20.975 9.65099C21.1666 9.8413 21.4167 9.96144 21.685 9.99199L21.82 9.99999H22.82C23.6372 9.99994 24.4235 10.3126 25.0176 10.8737C25.6117 11.4349 25.9685 12.2021 26.015 13.018L26.02 13.2V14.2C26.02 14.47 26.112 14.733 26.278 14.943L26.368 15.043L27.065 15.741C27.6427 16.3154 27.9796 17.0886 28.0069 17.9029C28.0342 18.7171 27.7499 19.5111 27.212 20.123L27.067 20.277L26.369 20.975C26.1787 21.1665 26.0586 21.4167 26.028 21.685L26.02 21.82V22.82C26.0201 23.6372 25.7074 24.4235 25.1463 25.0176C24.5851 25.6116 23.8179 25.9685 23.002 26.015L22.82 26.02H21.82C21.5504 26.0201 21.2887 26.111 21.077 26.278L20.977 26.368L20.279 27.065C19.7046 27.6427 18.9314 27.9796 18.1171 28.0069C17.3029 28.0342 16.5089 27.7499 15.897 27.212L15.743 27.067L15.045 26.369C14.8535 26.1787 14.6033 26.0585 14.335 26.028L14.2 26.02H13.2C12.3828 26.02 11.5965 25.7074 11.0024 25.1462C10.4084 24.5851 10.0515 23.8179 10.005 23.002L10 22.82V21.82C9.99993 21.5504 9.90904 21.2886 9.74202 21.077L9.65201 20.977L8.95501 20.279C8.3773 19.7045 8.04044 18.9314 8.01312 18.1171C7.98581 17.3029 8.27009 16.5089 8.80802 15.897L8.95302 15.743L9.65102 15.045C9.84133 14.8534 9.96147 14.6033 9.99202 14.335L10 14.2V13.2L10.005 13.018C10.0497 12.2334 10.3814 11.4927 10.9371 10.9371C11.4928 10.3814 12.2335 10.0496 13.018 10.005L13.2 9.99999H14.2C14.4696 9.9999 14.7314 9.90901 14.943 9.74199L15.043 9.65199L15.741 8.95499C16.0384 8.65588 16.3919 8.41849 16.7813 8.25649C17.1707 8.09448 17.5883 8.01105 18.01 8.01099ZM21.707 15.293C21.5195 15.1055 21.2652 15.0002 21 15.0002C20.7349 15.0002 20.4805 15.1055 20.293 15.293L17 18.585L15.707 17.293L15.613 17.21C15.412 17.0546 15.1594 16.9815 14.9065 17.0056C14.6536 17.0297 14.4193 17.1491 14.2513 17.3397C14.0832 17.5303 13.994 17.7777 14.0018 18.0316C14.0095 18.2856 14.1137 18.527 14.293 18.707L16.293 20.707L16.387 20.79C16.5794 20.9392 16.8197 21.0132 17.0627 20.9979C17.3057 20.9826 17.5348 20.8792 17.707 20.707L21.707 16.707L21.79 16.613C21.9393 16.4206 22.0132 16.1803 21.9979 15.9373C21.9826 15.6943 21.8792 15.4652 21.707 15.293Z" fill="white"/>
</svg>
