<svg width="36" height="36" viewBox="0 0 36 36" fill="none" xmlns="http://www.w3.org/2000/svg">
<rect width="36" height="36" rx="18" fill="#FFB23F"/>
<path d="M19 9C19.7652 8.99996 20.5015 9.29233 21.0583 9.81728C21.615 10.3422 21.9501 11.0601 21.995 11.824L22 12V16H24C24.7351 15.9999 25.4447 16.2697 25.994 16.7582C26.5434 17.2467 26.8942 17.9199 26.98 18.65L26.995 18.824L27 19L26.98 19.196L25.974 24.228C25.593 25.854 24.472 27.024 23.164 27.008L23 27H15C14.7551 27 14.5187 26.91 14.3356 26.7473C14.1526 26.5845 14.0357 26.3603 14.007 26.117L14 26L14.001 16.464C14.0012 16.2886 14.0475 16.1164 14.1352 15.9646C14.223 15.8128 14.3491 15.6867 14.501 15.599C14.9274 15.3527 15.2866 15.0052 15.5468 14.5871C15.8071 14.1691 15.9603 13.6933 15.993 13.202L16 13V12C16 11.2044 16.3161 10.4413 16.8787 9.87868C17.4413 9.31607 18.2044 9 19 9Z" fill="white"/>
<path d="M11 16C11.2449 16 11.4813 16.09 11.6644 16.2527C11.8474 16.4155 11.9643 16.6397 11.993 16.883L12 17V26C12 26.2449 11.91 26.4813 11.7473 26.6644C11.5845 26.8474 11.3603 26.9643 11.117 26.993L11 27H10C9.49542 27.0002 9.00943 26.8096 8.63945 26.4665C8.26947 26.1234 8.04284 25.6532 8.005 25.15L8 25V18C7.99984 17.4954 8.19041 17.0094 8.5335 16.6395C8.87659 16.2695 9.34684 16.0428 9.85 16.005L10 16H11Z" fill="white"/>
</svg>
